<?xml version="1.0" encoding="UTF-8"?>
<svg width="52px" height="53px" viewBox="0 0 52 53" version="1.1" xmlns="http://www.w3.org/2000/svg" xmlns:xlink="http://www.w3.org/1999/xlink">
    <!-- Generator: Sketch 56.3 (81716) - https://sketch.com -->
    <title>Group 6</title>
    <desc>Created with Sketch.</desc>
    <g id="Page-1" stroke="none" stroke-width="1" fill="none" fill-rule="evenodd">
        <g id="Traveroo" transform="translate(-1005.000000, -3188.000000)">
            <g id="Group-48" transform="translate(1.000000, 3070.000000)">
                <g id="Group-47">
                    <g id="Group-46" transform="translate(0.000000, 62.000000)">
                        <g id="Group-31" transform="translate(1004.000000, 56.250000)">
                            <g id="Group-6">
                                <circle id="Oval" fill="#F1F1F1" cx="26" cy="26" r="26"></circle>
                                <g id="Instagram-2" transform="translate(15.000000, 15.000000)" fill="#454549">
                                    <path d="M10.8000214,0 C13.7331039,0 14.1008914,0.0124324936 15.2528262,0.064991932 C16.4023603,0.117422758 17.1874508,0.300008931 17.8744104,0.567007449 C18.5846059,0.842965936 19.1868959,1.21225387 19.7873424,1.81265756 C20.3877461,2.41310413 20.7570341,3.01539414 21.0330354,3.72558962 C21.2999911,4.4125492 21.4825772,5.19763973 21.5350081,6.34717381 C21.5875675,7.49910865 21.6,7.8668961 21.6,10.8000214 C21.6,13.7331039 21.5875675,14.1008914 21.5350081,15.2528262 C21.4825772,16.4023603 21.2999911,17.1874508 21.0330354,17.8744104 C20.7570341,18.5846059 20.3877461,19.1868959 19.7873424,19.7873424 C19.1868959,20.3877461 18.5846059,20.7570341 17.8744104,21.0330354 C17.1874508,21.2999911 16.4023603,21.4825772 15.2528262,21.5350081 C14.1008914,21.5875675 13.7331039,21.6 10.8000214,21.6 C7.8668961,21.6 7.49910865,21.5875675 6.34717381,21.5350081 C5.19763973,21.4825772 4.4125492,21.2999911 3.72558962,21.0330354 C3.01539414,20.7570341 2.41310413,20.3877461 1.81265756,19.7873424 C1.21225387,19.1868959 0.842965936,18.5846059 0.567007449,17.8744104 C0.300008931,17.1874508 0.117422758,16.4023603 0.064991932,15.2528262 C0.0124324936,14.1008914 0,13.7331039 0,10.8000214 C0,7.8668961 0.0124324936,7.49910865 0.064991932,6.34717381 C0.117422758,5.19763973 0.300008931,4.4125492 0.567007449,3.72558962 C0.842965936,3.01539414 1.21225387,2.41310413 1.81265756,1.81265756 C2.41310413,1.21225387 3.01539414,0.842965936 3.72558962,0.567007449 C4.4125492,0.300008931 5.19763973,0.117422758 6.34717381,0.064991932 C7.49910865,0.0124324936 7.8668961,0 10.8000214,0 Z M10.8000214,1.94594247 C7.91628311,1.94594247 7.57468963,1.95696023 6.43587322,2.00891948 C5.38288389,2.05693463 4.81103205,2.23287585 4.43046914,2.38077965 C3.92635296,2.5766986 3.56658231,2.81072958 3.18867738,3.18867738 C2.81072958,3.56658231 2.5766986,3.92635296 2.38077965,4.43046914 C2.23287585,4.81103205 2.05693463,5.38288389 2.00891948,6.43587322 C1.95696023,7.57468963 1.94594247,7.91628311 1.94594247,10.8000214 C1.94594247,13.6837169 1.95696023,14.0253104 2.00891948,15.1641268 C2.05693463,16.2171161 2.23287585,16.7889679 2.38077965,17.1695309 C2.5766986,17.673647 2.81077245,18.0334177 3.18867738,18.4113226 C3.56658231,18.7892704 3.92635296,19.0233014 4.43046914,19.2192203 C4.81103205,19.3671242 5.38288389,19.5430654 6.43587322,19.5910805 C7.57456102,19.6430398 7.91606876,19.6540575 10.8000214,19.6540575 C13.6839312,19.6540575 14.0254818,19.6430398 15.1641268,19.5910805 C16.2171161,19.5430654 16.7889679,19.3671242 17.1695309,19.2192203 C17.673647,19.0233014 18.0334177,18.7892704 18.4113226,18.4113226 C18.7892704,18.0334177 19.0233014,17.673647 19.2192203,17.1695309 C19.3671242,16.7889679 19.5430654,16.2171161 19.5910805,15.1641268 C19.6430398,14.0253104 19.6540575,13.6837169 19.6540575,10.8000214 C19.6540575,7.91628311 19.6430398,7.57468963 19.5910805,6.43587322 C19.5430654,5.38288389 19.3671242,4.81103205 19.2192203,4.43046914 C19.0233014,3.92635296 18.7892704,3.56658231 18.4113226,3.18867738 C18.0334177,2.81072958 17.673647,2.5766986 17.1695309,2.38077965 C16.7889679,2.23287585 16.2171161,2.05693463 15.1641268,2.00891948 C14.0253104,1.95696023 13.6837169,1.94594247 10.8000214,1.94594247 Z M10.8000214,5.25405753 C13.8629591,5.25405753 16.3459425,7.73704085 16.3459425,10.8000214 C16.3459425,13.8629591 13.8629591,16.3459425 10.8000214,16.3459425 C7.73704085,16.3459425 5.25405753,13.8629591 5.25405753,10.8000214 C5.25405753,7.73704085 7.73704085,5.25405753 10.8000214,5.25405753 Z M10.8000214,14.4 C12.7882344,14.4 14.4,12.7882344 14.4,10.8000214 C14.4,8.81176562 12.7882344,7.2 10.8000214,7.2 C8.81176562,7.2 7.2,8.81176562 7.2,10.8000214 C7.2,12.7882344 8.81176562,14.4 10.8000214,14.4 Z M17.8610776,5.03494555 C17.8610776,5.75071421 17.2808231,6.33092583 16.5650545,6.33092583 C15.8493287,6.33092583 15.2690742,5.75071421 15.2690742,5.03494555 C15.2690742,4.31917688 15.8493287,3.7389224 16.5650545,3.7389224 C17.2808231,3.7389224 17.8610776,4.31917688 17.8610776,5.03494555 Z" id="Instagram"></path>
                                </g>
                            </g>
                        </g>
                    </g>
                </g>
            </g>
        </g>
    </g>
</svg>