<?xml version="1.0" encoding="UTF-8"?>
<svg width="667px" height="763px" viewBox="0 0 667 763" version="1.1" xmlns="http://www.w3.org/2000/svg" xmlns:xlink="http://www.w3.org/1999/xlink">
    <!-- Generator: Sketch 56.3 (81716) - https://sketch.com -->
    <title>Background</title>
    <desc>Created with Sketch.</desc>
    <defs>
        <path d="M339.514765,30.2157073 L716.56826,279.8145 L716.56826,411.535688 L72.1018852,411.535688 L21.8338251,290.054542 C9.26672491,259.68405 18.1114325,224.666049 43.5929508,203.905725 L251.43153,34.5753095 C276.67668,14.0075605 312.362007,12.2413466 339.514765,30.2157073 Z" id="path-1"></path>
        <linearGradient x1="5.37833567%" y1="49.8460175%" x2="79.3240871%" y2="49.9507088%" id="linearGradient-3">
            <stop stop-color="#3E9AB0" offset="0%"></stop>
            <stop stop-color="#58ABC0" offset="100%"></stop>
        </linearGradient>
        <path d="M0,0 L420.465938,0 L420.465938,610.23375 L33.4181049,354.713676 C12.5537379,340.939501 3.14834482e-14,317.609136 0,292.608142 L0,0 Z" id="path-4"></path>
        <path d="M-4.58300065e-12,21.934611 C2.45002082,33.7162263 4.99891835,41.7840715 7.64669261,46.1381467 C10.2944669,50.4922219 15.035196,54.9024018 21.86888,59.3686864 C24.1082707,91.4084865 25.0878989,118.223807 24.8077644,139.814648 C24.52763,161.405488 38.4279992,159.484096 66.508872,134.05047 C57.3360224,79.4741759 52.0407454,50.1700681 50.623041,46.1381467 C48.4964843,40.0902647 48.6871694,20.8611332 46.3641236,13.4290763 C44.0410777,5.99701946 37.8462888,7.2475359e-13 37.8462888,7.2475359e-13 C37.8462888,7.2475359e-13 25.2308592,7.31153701 -4.58300065e-12,21.934611 Z" id="path-6"></path>
        <linearGradient x1="43.1226293%" y1="-48.8223277%" x2="55.5431884%" y2="87.6005153%" id="linearGradient-8">
            <stop stop-color="#C98065" offset="0%"></stop>
            <stop stop-color="#CC8065" stop-opacity="0.804614231" offset="28.3415091%"></stop>
            <stop stop-color="#D48163" stop-opacity="0.182148962" offset="49.0322968%"></stop>
            <stop stop-color="#D78163" stop-opacity="0" offset="100%"></stop>
        </linearGradient>
        <linearGradient x1="50%" y1="0%" x2="50%" y2="106.714754%" id="linearGradient-9">
            <stop stop-color="#C18386" offset="0%"></stop>
            <stop stop-color="#F2B4B7" stop-opacity="0.112598339" offset="100%"></stop>
        </linearGradient>
        <rect id="path-10" x="0.149292375" y="0.242312911" width="38.5744785" height="81.1685924"></rect>
        <path d="M2.2325625,0 L28.279125,0 C29.5121352,-2.26500303e-16 30.5116875,0.999552278 30.5116875,2.2325625 L30.5116875,33.4884375 C30.5116875,34.7214477 29.5121352,35.721 28.279125,35.721 L2.2325625,35.721 C0.999552278,35.721 3.98396595e-15,34.7214477 0,33.4884375 L0,2.2325625 C-1.51000202e-16,0.999552278 0.999552278,2.26500303e-16 2.2325625,0 Z" id="path-12"></path>
        <path d="M15.6159987,64.7784978 C20.7109168,44.9850679 22.4736895,33.1604215 20.9043166,29.3045585 C18.5502573,23.5207641 13.9530765,3.79949346 8.58879926,0.742987841 C3.22452201,-2.31351778 -0.289077686,8.15677584 1.95199983,14.2045872 C4.19307735,20.2523985 8.58879926,26.2198682 4.29439963,31.214337 C1.13686838e-13,36.2088058 1.13686838e-13,41.64332 1.13686838e-13,51.2266079 C1.13686838e-13,57.6154665 5.20533289,62.1327631 15.6159987,64.7784978 Z" id="path-14"></path>
        <path d="M59.1990099,4.11632311 L107.571197,0.395385614 L107.571197,56.8762394 C107.571197,68.6413086 116.70131,78.3873725 128.441352,79.1543708 L158.473607,81.1164327 L145.971258,101.953681 C118.585159,114.654481 91.7944109,121.60023 65.5990124,122.79093 C39.403614,123.98163 17.6733423,111.214178 0.40819742,84.4885731 L37.532922,79.9115523 C47.5015063,78.6825487 55.1747207,70.5170952 55.7823367,60.4914318 L59.1990099,4.11632311 Z" id="path-16"></path>
        <linearGradient x1="114.123535%" y1="-32.6935624%" x2="-33.0718994%" y2="151.600421%" id="linearGradient-18">
            <stop stop-color="#C98065" offset="0%"></stop>
            <stop stop-color="#CC8065" stop-opacity="0.804614231" offset="28.3415091%"></stop>
            <stop stop-color="#D48163" stop-opacity="0.182148962" offset="49.0322968%"></stop>
            <stop stop-color="#D78163" stop-opacity="0" offset="100%"></stop>
        </linearGradient>
        <path d="M99.2976527,14.1978584 C107.346098,62.3410397 103.432321,91.3738804 87.5563212,101.29638 C63.7423212,116.18013 47.7502541,114.775487 32.0239291,114.775487 C16.2976041,114.775487 6.25022982,111.714429 6.25022982,100.344784 C6.25022982,88.9751391 -9.91293754,15.9470346 9.7449687,4.14009551 C22.8502395,-3.73119719 52.7011342,-0.378609558 99.2976527,14.1978584 Z" id="path-19"></path>
        <path d="M90.1210864,96.179551 C91.7355265,122.417193 89.6969288,137.868249 84.0052933,142.532719 C75.4678401,149.529424 67.3647375,150.404012 55.1331514,150.404012 C42.9015653,150.404012 36.389476,149.966718 29.3999982,143.844601 C22.4105204,137.722485 0,89.6067297 0,72.1987528 C0,54.7907759 11.2888443,5.34728101 64.762317,11.2949213 C118.23579,17.2425615 122.988987,-7.14276353 135.466131,2.37346088 C147.943275,11.8896853 155.073071,55.3074592 131.27648,61.5338694 C107.479889,67.7602796 123.387532,89.1812819 114.604875,96.7387798 C108.74977,101.777112 104.520089,99.8415259 101.91583,90.9320225 L90.1210864,96.179551 Z" id="path-21"></path>
        <path d="M26.0111476,21.4902615 C25.1547601,10.9886674 22.0795664,0.937441641 13.7795615,0.0628535628 C5.47955666,-0.811734515 -2.38360584,7.49685223 0.674290688,21.4902615 C3.73218721,35.4836707 9.3938407,45.1041396 17.2743004,42.9176694 C25.1547601,40.7311992 26.8675351,31.9918556 26.0111476,21.4902615 Z" id="path-23"></path>
        <linearGradient x1="50%" y1="0%" x2="89.8844286%" y2="155.835956%" id="linearGradient-25">
            <stop stop-color="#C98065" offset="0%"></stop>
            <stop stop-color="#D78163" offset="100%"></stop>
        </linearGradient>
        <linearGradient x1="10.6047216%" y1="-18.5876053%" x2="50%" y2="50%" id="linearGradient-26">
            <stop stop-color="#C98065" offset="0%"></stop>
            <stop stop-color="#CC8065" stop-opacity="0.804614231" offset="28.3415091%"></stop>
            <stop stop-color="#D48163" stop-opacity="0.182148962" offset="69.2068008%"></stop>
            <stop stop-color="#D78163" stop-opacity="0" offset="100%"></stop>
        </linearGradient>
        <path d="M4.62278258,0.288998013 L63.2703836,4.39003778 L59.1952998,62.6664515 C58.0628289,78.8615393 44.0160672,91.072203 27.8209794,89.9397321 C11.6258916,88.8072612 -0.584772097,74.7604995 0.547698764,58.5654117 L4.62278258,0.288998013 Z" id="path-27"></path>
        <linearGradient x1="32.6327591%" y1="1.31187507%" x2="88.9058941%" y2="121.289235%" id="linearGradient-29">
            <stop stop-color="#FFFFFF" offset="0%"></stop>
            <stop stop-color="#DFEEFF" offset="100%"></stop>
        </linearGradient>
        <path d="M276.400082,232.930688 L55.3753051,232.930688 L47.270235,139.143448 L0.386422534,139.143448 C10.3089225,80.6006977 22.2159225,43.1432602 36.1074225,26.7711352 C49.9989225,10.3990102 78.029985,2.2129477 120.20061,2.2129477 C129.13086,14.6160727 142.526235,20.5695727 160.386735,20.0734477 C178.247235,19.5773227 190.65036,13.1276977 197.59611,0.724572705 C237.577621,6.50222496 265.112559,18.1611625 280.200923,35.7013852 C295.289286,53.2416079 309.924974,87.7222954 324.107985,139.143448 L263.08461,139.143448 L276.400082,232.930688 Z" id="path-30"></path>
        <linearGradient x1="10.7723927%" y1="-80.8545481%" x2="124.256719%" y2="306.410203%" id="linearGradient-32">
            <stop stop-color="#146ECA" offset="0%"></stop>
            <stop stop-color="#428BD6" offset="50.6368066%"></stop>
            <stop stop-color="#A0C6ED" offset="100%"></stop>
        </linearGradient>
        <path d="M1.13699458,10.3675023 C-5.47194759,22.8698515 29.1184449,99.3723275 33.8812446,104.135127 C38.6440443,108.897927 70.1975947,99.8188396 72.5789946,97.4374398 C74.9603944,95.0560399 46.7648602,2.83250261 30.1603071,0.693064766 C11.8420162,-1.66718211 5.1125066,2.84689783 1.13699458,10.3675023 Z" id="path-33"></path>
        <linearGradient x1="16.9167758%" y1="-80.8545481%" x2="112.62558%" y2="306.410203%" id="linearGradient-35">
            <stop stop-color="#146ECA" offset="0%"></stop>
            <stop stop-color="#428BD6" offset="50.6368066%"></stop>
            <stop stop-color="#A0C6ED" offset="100%"></stop>
        </linearGradient>
        <path d="M77.0831471,11.4488025 C102.035214,30.4786299 51.1014681,102.341472 45.1479684,117.820571 C39.1944688,133.29967 -1.14124941,136.300331 1.24015044,127.591899 C2.82775035,121.786277 16.9724986,82.1399427 43.6743953,8.6528951 C49.3121855,-2.16971821 60.4484361,-1.23774907 77.0831471,11.4488025 Z" id="path-36"></path>
        <linearGradient x1="-56.761248%" y1="-76.9593361%" x2="106.78668%" y2="73.1392643%" id="linearGradient-38">
            <stop stop-color="#146ECA" offset="0%"></stop>
            <stop stop-color="#428BD6" offset="50.6368066%"></stop>
            <stop stop-color="#A0C6ED" offset="100%"></stop>
        </linearGradient>
        <path d="M57.756157,0 L165.528624,0 C195.44967,-1.26018344e-14 219.705471,24.2558005 219.705471,54.1768468 C219.705471,54.2687316 219.705237,54.3606163 219.704769,54.4524999 L218.978271,197.236682 L0,197.236682 L3.59610058,52.8281384 C4.32789179,23.4416123 28.3605207,5.39989078e-15 57.756157,0 Z" id="path-39"></path>
        <linearGradient x1="53.1092768%" y1="56.6997623%" x2="37.7897888%" y2="159.210793%" id="linearGradient-41">
            <stop stop-color="#146ECA" offset="0%"></stop>
            <stop stop-color="#428BD6" offset="26.6010703%"></stop>
            <stop stop-color="#A0C6ED" stop-opacity="0" offset="100%"></stop>
        </linearGradient>
        <linearGradient x1="-56.761248%" y1="-99.8232459%" x2="106.78668%" y2="77.3063785%" id="linearGradient-42">
            <stop stop-color="#146ECA" offset="0%"></stop>
            <stop stop-color="#428BD6" offset="50.6368066%"></stop>
            <stop stop-color="#A0C6ED" offset="100%"></stop>
        </linearGradient>
        <path d="M57.4786226,29.7675 L166.961127,29.7675 C183.812267,29.7675 197.472815,43.4280478 197.472815,60.2791875 C197.472815,60.3401338 197.472632,60.4010801 197.472267,60.4620253 L196.652646,197.236682 L25.7488912,197.009732 L26.9681434,60.007659 C27.1171616,43.2631248 40.7334254,29.7675 57.4786226,29.7675 Z" id="path-43"></path>
        <ellipse id="path-45" cx="193.48875" cy="95.256" rx="24.5581875" ry="27.5349375"></ellipse>
        <rect id="path-47" x="0" y="0" width="87.0699375" height="87.0699375" rx="20.503854"></rect>
        <filter x="-95.3%" y="-76.9%" width="290.7%" height="290.7%" filterUnits="objectBoundingBox" id="filter-48">
            <feOffset dx="0" dy="16" in="SourceAlpha" result="shadowOffsetOuter1"></feOffset>
            <feGaussianBlur stdDeviation="25" in="shadowOffsetOuter1" result="shadowBlurOuter1"></feGaussianBlur>
            <feColorMatrix values="0 0 0 0 0.254901961   0 0 0 0 0.611764706   0 0 0 0 0.698039216  0 0 0 0.237680288 0" type="matrix" in="shadowBlurOuter1"></feColorMatrix>
        </filter>
        <rect id="path-49" x="0" y="0" width="87.0699375" height="87.0699375" rx="20.503854"></rect>
        <filter x="-95.3%" y="-76.9%" width="290.7%" height="290.7%" filterUnits="objectBoundingBox" id="filter-50">
            <feOffset dx="0" dy="16" in="SourceAlpha" result="shadowOffsetOuter1"></feOffset>
            <feGaussianBlur stdDeviation="25" in="shadowOffsetOuter1" result="shadowBlurOuter1"></feGaussianBlur>
            <feColorMatrix values="0 0 0 0 0.254901961   0 0 0 0 0.611764706   0 0 0 0 0.698039216  0 0 0 0.237680288 0" type="matrix" in="shadowBlurOuter1"></feColorMatrix>
        </filter>
    </defs>
    <g id="Page-1" stroke="none" stroke-width="1" fill="none" fill-rule="evenodd">
        <g id="Desktop" transform="translate(-413.000000, -5.000000)">
            <g id="Background" transform="translate(397.000000, 5.000000)">
                <g id="Group-2" transform="translate(0.000000, 350.512313)">
                    <mask id="mask-2" fill="white">
                        <use xlink:href="#path-1"></use>
                    </mask>
                    <use id="Rectangle" fill="#C9F2FC" xlink:href="#path-1"></use>
                    <g id="Group-6" mask="url(#mask-2)">
                        <g transform="translate(524.567885, 320.000625)">
                            <polygon id="Rectangle-Copy" fill="#A9E0EE" fill-rule="nonzero" points="0 -4.35414829e-14 78.1396875 -4.35414829e-14 78.1396875 92.27925 0 92.27925"></polygon>
                            <rect id="Rectangle-Copy-8" fill="#FFFFFF" fill-rule="evenodd" opacity="0.376929874" x="54.3256875" y="63.2559375" width="8.93025" height="13.395375" rx="4.465125"></rect>
                            <rect id="Rectangle-Copy-10" fill="#FFFFFF" fill-rule="evenodd" opacity="0.376929874" x="39.4419375" y="42.4186875" width="8.93025" height="13.395375" rx="4.465125"></rect>
                            <rect id="Rectangle-Copy-9" fill="#FFFFFF" fill-rule="evenodd" opacity="0.376929874" x="54.3256875" y="24.5581875" width="8.93025" height="13.395375" rx="4.465125"></rect>
                            <rect id="Rectangle-Copy-11" fill="#FFFFFF" fill-rule="evenodd" opacity="0.376929874" x="19.348875" y="65.4885" width="8.93025" height="13.395375" rx="4.465125"></rect>
                        </g>
                    </g>
                    <g id="Group-8" mask="url(#mask-2)">
                        <g transform="translate(12.566885, 317.768063)">
                            <ellipse id="Oval" stroke="none" fill="#A7DFED" fill-rule="evenodd" cx="21.2093438" cy="33.8605313" rx="21.2093438" ry="33.8605313"></ellipse>
                            <path d="M21.4711875,25.5256313 L21.4711875,93.767625" id="Path-50" stroke="#439CB3" stroke-width="2.60465625" fill="none" stroke-linecap="round" stroke-linejoin="round"></path>
                            <path d="M11.521125,25.5256313 L21.4711875,36.9861188" id="Path-51" stroke="#439CB3" stroke-width="2.60465625" fill="none" stroke-linecap="round" stroke-linejoin="round"></path>
                            <path d="M21.994875,35.9442562 L31.9449375,47.4047437" id="Path-51" stroke="#439CB3" stroke-width="2.60465625" fill="none" stroke-linecap="round" stroke-linejoin="round" transform="translate(26.969906, 41.674500) scale(-1, 1) translate(-26.969906, -41.674500) "></path>
                        </g>
                    </g>
                    <g id="Group-7" mask="url(#mask-2)">
                        <g transform="translate(602.707573, 275.349375)">
                            <rect id="Rectangle" fill="#A9E0EE" fill-rule="nonzero" x="0" y="0" width="78.1396875" height="136.9305"></rect>
                            <rect id="Rectangle" fill="#FFFFFF" fill-rule="evenodd" opacity="0.376929874" x="11.1628125" y="11.1628125" width="8.93025" height="13.395375" rx="4.465125"></rect>
                            <rect id="Rectangle-Copy-2" fill="#FFFFFF" fill-rule="evenodd" opacity="0.376929874" x="11.1628125" y="55.8140625" width="8.93025" height="13.395375" rx="4.465125"></rect>
                            <rect id="Rectangle-Copy-5" fill="#FFFFFF" fill-rule="evenodd" opacity="0.376929874" x="26.79075" y="69.2094375" width="8.93025" height="13.395375" rx="4.465125"></rect>
                            <rect id="Rectangle-Copy-6" fill="#FFFFFF" fill-rule="evenodd" opacity="0.376929874" x="58.7908125" y="34.9768125" width="8.93025" height="13.395375" rx="4.465125"></rect>
                            <rect id="Rectangle-Copy-7" fill="#FFFFFF" fill-rule="evenodd" opacity="0.376929874" x="58.7908125" y="107.907188" width="8.93025" height="13.395375" rx="4.465125"></rect>
                            <rect id="Rectangle-Copy-4" fill="#FFFFFF" fill-rule="evenodd" opacity="0.376929874" x="11.1628125" y="80.37225" width="8.93025" height="13.395375" rx="4.465125"></rect>
                        </g>
                    </g>
                    <g id="Group-7-Copy" mask="url(#mask-2)">
                        <g transform="translate(179.349188, 266.419125)">
                            <polygon id="Rectangle" fill="#A9E0EE" fill-rule="nonzero" points="0 26.7615025 62.4443082 1.13686838e-13 62.51175 136.186313 0 136.186313"></polygon>
                            <rect id="Rectangle" fill="#FFFFFF" fill-rule="evenodd" opacity="0.376929874" x="8.93025" y="35.6820033" width="7.1442" height="10.704601" rx="3.5721"></rect>
                            <rect id="Rectangle-Copy-2" fill="#FFFFFF" fill-rule="evenodd" opacity="0.376929874" x="8.93025" y="71.3640066" width="7.1442" height="10.704601" rx="3.5721"></rect>
                            <rect id="Rectangle-Copy-5" fill="#FFFFFF" fill-rule="evenodd" opacity="0.376929874" x="21.4326" y="82.0686075" width="7.1442" height="10.704601" rx="3.5721"></rect>
                            <rect id="Rectangle-Copy-6" fill="#FFFFFF" fill-rule="evenodd" opacity="0.376929874" x="47.03265" y="54.712405" width="7.1442" height="10.704601" rx="3.5721"></rect>
                            <rect id="Rectangle-Copy-7" fill="#FFFFFF" fill-rule="evenodd" opacity="0.376929874" x="47.03265" y="112.99301" width="7.1442" height="10.704601" rx="3.5721"></rect>
                            <rect id="Rectangle-Copy-4" fill="#FFFFFF" fill-rule="evenodd" opacity="0.376929874" x="8.93025" y="90.9891084" width="7.1442" height="10.704601" rx="3.5721"></rect>
                        </g>
                    </g>
                    <path d="M59.4506977,384.00075 C216.226198,396.9 352.41251,404.093812 468.009635,405.582187 C583.60676,407.070562 666.459635,406.574437 716.56826,404.093813 L716.56826,411.535688 L72.1018852,411.535688 L59.4506977,384.00075 Z" id="Rectangle" fill="url(#linearGradient-3)" mask="url(#mask-2)"></path>
                    <g id="Group-8" mask="url(#mask-2)">
                        <g transform="translate(235.823135, 317.768063)">
                            <ellipse id="Oval" stroke="none" fill="#DDF8FF" fill-rule="evenodd" cx="21.2093438" cy="33.8605313" rx="21.2093438" ry="33.8605313"></ellipse>
                            <path d="M21.4711875,25.5256313 L21.4711875,93.767625" id="Path-50" stroke="#439CB3" stroke-width="2.60465625" fill="none" stroke-linecap="round" stroke-linejoin="round"></path>
                            <path d="M11.521125,25.5256313 L21.4711875,36.9861188" id="Path-51" stroke="#439CB3" stroke-width="2.60465625" fill="none" stroke-linecap="round" stroke-linejoin="round"></path>
                            <path d="M21.994875,35.9442562 L31.9449375,47.4047437" id="Path-51" stroke="#439CB3" stroke-width="2.60465625" fill="none" stroke-linecap="round" stroke-linejoin="round" transform="translate(26.969906, 41.674500) scale(-1, 1) translate(-26.969906, -41.674500) "></path>
                        </g>
                    </g>
                    <g id="Group-8" mask="url(#mask-2)">
                        <g transform="translate(72.101885, 310.326188)">
                            <ellipse id="Oval" stroke="none" fill="#A7DFED" fill-rule="evenodd" cx="21.2093438" cy="33.8605313" rx="21.2093438" ry="33.8605313"></ellipse>
                            <path d="M21.4711875,25.5256313 L21.4711875,93.767625" id="Path-50" stroke="#439CB3" stroke-width="2.60465625" fill="none" stroke-linecap="round" stroke-linejoin="round"></path>
                            <path d="M11.521125,25.5256313 L21.4711875,36.9861188" id="Path-51" stroke="#439CB3" stroke-width="2.60465625" fill="none" stroke-linecap="round" stroke-linejoin="round"></path>
                            <path d="M21.994875,35.9442562 L31.9449375,47.4047437" id="Path-51" stroke="#439CB3" stroke-width="2.60465625" fill="none" stroke-linecap="round" stroke-linejoin="round" transform="translate(26.969906, 41.674500) scale(-1, 1) translate(-26.969906, -41.674500) "></path>
                        </g>
                    </g>
                    <g id="Group-8-Copy" mask="url(#mask-2)">
                        <g transform="translate(666.047813, 339.349500)">
                            <ellipse id="Oval" stroke="none" fill="#DDF8FF" fill-rule="evenodd" cx="14.88375" cy="23.648625" rx="14.88375" ry="23.648625"></ellipse>
                            <path d="M15.0675,17.827425 L15.0675,65.4885" id="Path-50" stroke="#439CB3" stroke-width="1.82325938" fill="none" stroke-linecap="round" stroke-linejoin="round"></path>
                            <path d="M8.085,17.827425 L15.0675,25.831575" id="Path-51" stroke="#439CB3" stroke-width="1.82325938" fill="none" stroke-linecap="round" stroke-linejoin="round"></path>
                            <path d="M15.435,25.103925 L22.4175,33.108075" id="Path-51" stroke="#439CB3" stroke-width="1.82325938" fill="none" stroke-linecap="round" stroke-linejoin="round" transform="translate(18.926250, 29.106000) scale(-1, 1) translate(-18.926250, -29.106000) "></path>
                        </g>
                    </g>
                    <g id="Group-8-Copy" mask="url(#mask-2)">
                        <g transform="translate(606.512812, 339.349500)">
                            <ellipse id="Oval" stroke="none" fill="#DDF8FF" fill-rule="evenodd" cx="14.88375" cy="23.648625" rx="14.88375" ry="23.648625"></ellipse>
                            <path d="M15.0675,17.827425 L15.0675,65.4885" id="Path-50" stroke="#439CB3" stroke-width="1.82325938" fill="none" stroke-linecap="round" stroke-linejoin="round"></path>
                            <path d="M8.085,17.827425 L15.0675,25.831575" id="Path-51" stroke="#439CB3" stroke-width="1.82325938" fill="none" stroke-linecap="round" stroke-linejoin="round"></path>
                            <path d="M15.435,25.103925 L22.4175,33.108075" id="Path-51" stroke="#439CB3" stroke-width="1.82325938" fill="none" stroke-linecap="round" stroke-linejoin="round" transform="translate(18.926250, 29.106000) scale(-1, 1) translate(-18.926250, -29.106000) "></path>
                        </g>
                    </g>
                    <path d="M378.799933,144.372375 L251.125168,144.372375 C252.953589,134.454258 260.560758,127.016409 269.66743,127.016409 C273.205342,127.016409 276.516934,128.139001 279.351291,130.093495 C283.880401,119.587503 293.251547,112.372312 304.077307,112.372312 C314.293998,112.372312 323.215147,118.798474 327.993509,128.35221 C330.513454,127.491708 333.32036,127.016409 336.33074,127.016409 C346.247588,127.016409 353.711623,130.669235 356.137021,138.43274 C358.888642,136.719351 362.030656,135.694392 364.602729,135.694392 C369.630432,135.694392 376.649932,138.467948 378.799928,144.372374 Z" id="Combined-Shape" fill="#FFFFFF" opacity="0.597470238" mask="url(#mask-2)"></path>
                    <path d="M700.469666,250.791188 L608.219112,250.791188 C609.540226,243.640917 615.036735,238.278747 621.616701,238.278747 C624.172995,238.278747 626.565764,239.088058 628.61371,240.497111 C631.886189,232.923024 638.657248,227.721375 646.479328,227.721375 C653.861331,227.721375 660.307248,232.354189 663.759822,239.241766 C665.580591,238.621404 667.608703,238.278747 669.783832,238.278747 C676.949185,238.278747 682.342274,240.91218 684.094729,246.509125 C686.082894,245.273891 688.353136,244.534967 690.21157,244.534967 C693.844303,244.534967 698.916197,246.534508 700.469662,250.791187 Z" id="Combined-Shape-Copy" fill="#FFFFFF" opacity="0.597470238" mask="url(#mask-2)"></path>
                    <path d="M57.3024375,243.349313 C58.6268962,237.121658 64.1373203,232.45138 70.7339437,232.45138 C73.2967101,232.45138 75.6955369,233.156264 77.748667,234.383504 C81.0294307,227.786718 87.8176314,223.25625 95.6595149,223.25625 C103.698426,223.25625 110.630041,228.017234 113.810969,234.884611 C116.600668,233.363153 119.799764,232.45138 122.414252,232.45138 C128.462314,232.45138 137.371695,235.906822 137.371695,243.349313 L57.3024375,243.349313 Z" id="Combined-Shape-Copy-3" fill="#FFFFFF" opacity="0.597470238" mask="url(#mask-2)"></path>
                    <path d="M466.756921,206.139938 C467.787055,201.296206 472.072941,197.663768 477.203648,197.663768 C479.196911,197.663768 481.062665,198.212011 482.659544,199.166531 C485.211249,194.035698 490.49096,190.512 496.590203,190.512 C502.842689,190.512 508.233946,194.214988 510.708001,199.556281 C512.877767,198.372925 515.365953,197.663768 517.399443,197.663768 C522.103491,197.663768 529.03301,200.351334 529.03301,206.139938 L466.756921,206.139938 Z" id="Combined-Shape-Copy-4" fill="#FFFFFF" opacity="0.597470238" mask="url(#mask-2)"></path>
                </g>
                <g id="Group-10" transform="translate(256.660385, 0.000000)">
                    <g id="Group-20" transform="translate(39.441938, 0.000000)">
                        <mask id="mask-5" fill="white">
                            <use xlink:href="#path-4"></use>
                        </mask>
                        <use id="Mask" fill="#FFE3B7" xlink:href="#path-4"></use>
                        <path d="M585.675563,290.093354 C498.853688,257.349104 432.124875,251.147541 385.489125,271.488666 C315.5355,302.000354 200.186437,333.256229 117.581625,262.558416 C62.51175,215.426541 -14.6356875,217.162979 -113.860688,267.767729" id="Path-52" stroke="#FFFFFF" stroke-width="111.628125" opacity="0.236211868" mask="url(#mask-5)"></path>
                        <path d="M387.326332,107.163 L309.835871,107.163 C310.945607,101.165999 315.562674,96.6686949 321.089845,96.6686949 C323.237133,96.6686949 325.247059,97.3474717 326.967333,98.5292584 C329.716215,92.1767983 335.403904,87.814125 341.974452,87.814125 C348.175335,87.814125 353.589905,91.6997107 356.490067,97.4763885 C358.019513,96.9560848 359.723127,96.6686949 361.550236,96.6686949 C367.569132,96.6686949 372.099326,98.8773805 373.571389,103.571593 C375.241448,102.53559 377.148451,101.915847 378.709535,101.915847 C381.761031,101.915847 386.021422,103.592882 387.326332,107.163 Z" id="Combined-Shape-Copy-2" fill="#FFF4E2" mask="url(#mask-5)"></path>
                        <path d="M89.3025,305.861063 C90.4002184,299.864062 94.9672872,295.366757 100.434604,295.366757 C102.558638,295.366757 104.546798,296.045534 106.248444,297.227321 C108.967558,290.874861 114.593655,286.512188 121.093049,286.512188 C127.713642,286.512188 133.428063,291.039084 136.086724,297.584754 C137.973514,296.648693 140.217173,296.110945 142.689407,296.110945 C149.739258,296.110945 154.724382,299.207775 155.067341,305.861063 L89.3025,305.861063 Z" id="Combined-Shape-Copy-6" fill="#FFF4E2" mask="url(#mask-5)"></path>
                        <path d="M232.205375,209.116688 C233.303094,203.119687 237.870162,198.622382 243.337479,198.622382 C245.461513,198.622382 247.449674,199.301159 249.151319,200.482946 C251.870433,194.130486 257.49653,189.767813 263.995925,189.767813 C270.616517,189.767813 276.330938,194.294709 278.989599,200.840379 C280.876389,199.904318 283.120048,199.36657 285.592282,199.36657 C292.642133,199.36657 297.627257,202.4634 297.970216,209.116688 L232.205375,209.116688 Z" id="Combined-Shape-Copy-7" fill="#FFF4E2" mask="url(#mask-5)" transform="translate(265.087795, 199.442250) scale(-1, 1) translate(-265.087795, -199.442250) "></path>
                        <g id="Group-7" mask="url(#mask-5)">
                            <g transform="translate(197.209688, 305.861063)">
                                <polygon id="Rectangle" fill="#FECB97" points="0 0 78.1396875 0 78.1396875 189.023625 0 189.023625"></polygon>
                                <rect id="Rectangle" fill="#FFFFFF" opacity="0.376929874" x="11.1628125" y="11.1628125" width="8.93025" height="13.395375" rx="4.465125"></rect>
                                <rect id="Rectangle-Copy-2" fill="#FFFFFF" opacity="0.376929874" x="11.1628125" y="55.8140625" width="8.93025" height="13.395375" rx="4.465125"></rect>
                                <rect id="Rectangle-Copy-5" fill="#FFFFFF" opacity="0.376929874" x="49.8605625" y="69.2094375" width="8.93025" height="13.395375" rx="4.465125"></rect>
                                <rect id="Rectangle-Copy-6" fill="#FFFFFF" opacity="0.376929874" x="58.7908125" y="34.9768125" width="8.93025" height="13.395375" rx="4.465125"></rect>
                                <rect id="Rectangle-Copy-7" fill="#FFFFFF" opacity="0.376929874" x="58.7908125" y="107.907188" width="8.93025" height="13.395375" rx="4.465125"></rect>
                                <rect id="Rectangle-Copy-4" fill="#FFFFFF" opacity="0.376929874" x="11.1628125" y="135.442125" width="8.93025" height="13.395375" rx="4.465125"></rect>
                            </g>
                        </g>
                        <g id="Group-7-Copy-3" mask="url(#mask-5)" fill="#FECB97">
                            <g transform="translate(381.768188, 345.303000)" id="Rectangle">
                                <polygon points="0 0 78.1396875 0 78.1396875 189.023625 0 189.023625"></polygon>
                            </g>
                        </g>
                        <g id="Group-7-Copy-2" mask="url(#mask-5)">
                            <g transform="translate(81.860625, 345.303000)">
                                <polygon id="Rectangle" fill="#FECB97" points="0 0 78.1396875 0 78.1396875 189.023625 0 189.023625"></polygon>
                                <rect id="Rectangle" fill="#FFFFFF" opacity="0.376929874" x="11.1628125" y="11.1628125" width="8.93025" height="13.395375" rx="4.465125"></rect>
                                <rect id="Rectangle-Copy-2" fill="#FFFFFF" opacity="0.376929874" x="11.1628125" y="55.8140625" width="8.93025" height="13.395375" rx="4.465125"></rect>
                                <rect id="Rectangle-Copy-5" fill="#FFFFFF" opacity="0.376929874" x="26.79075" y="69.2094375" width="8.93025" height="13.395375" rx="4.465125"></rect>
                                <rect id="Rectangle-Copy-6" fill="#FFFFFF" opacity="0.376929874" x="58.7908125" y="34.9768125" width="8.93025" height="13.395375" rx="4.465125"></rect>
                                <rect id="Rectangle-Copy-7" fill="#FFFFFF" opacity="0.376929874" x="58.7908125" y="107.907188" width="8.93025" height="13.395375" rx="4.465125"></rect>
                                <rect id="Rectangle-Copy-4" fill="#FFFFFF" opacity="0.376929874" x="11.1628125" y="80.37225" width="8.93025" height="13.395375" rx="4.465125"></rect>
                            </g>
                        </g>
                        <g id="Group-7-Copy-2" mask="url(#mask-5)">
                            <g transform="translate(-17.116312, 285.768000)">
                                <polygon id="Rectangle" fill="#FECB97" points="0 0 78.1396875 0 78.1396875 189.023625 0 189.023625"></polygon>
                                <rect id="Rectangle" fill="#FFFFFF" opacity="0.376929874" x="11.1628125" y="11.1628125" width="8.93025" height="13.395375" rx="4.465125"></rect>
                                <rect id="Rectangle-Copy-2" fill="#FFFFFF" opacity="0.376929874" x="11.1628125" y="55.8140625" width="8.93025" height="13.395375" rx="4.465125"></rect>
                                <rect id="Rectangle-Copy-5" fill="#FFFFFF" opacity="0.376929874" x="26.79075" y="69.2094375" width="8.93025" height="13.395375" rx="4.465125"></rect>
                                <rect id="Rectangle-Copy-6" fill="#FFFFFF" opacity="0.376929874" x="58.7908125" y="34.9768125" width="8.93025" height="13.395375" rx="4.465125"></rect>
                                <rect id="Rectangle-Copy-7" fill="#FFFFFF" opacity="0.376929874" x="58.7908125" y="107.907188" width="8.93025" height="13.395375" rx="4.465125"></rect>
                                <rect id="Rectangle-Copy-4" fill="#FFFFFF" opacity="0.376929874" x="11.1628125" y="80.37225" width="8.93025" height="13.395375" rx="4.465125"></rect>
                            </g>
                        </g>
                        <rect id="Rectangle" fill="#FCA15F" mask="url(#mask-5)" x="11.907" y="498.605625" width="448.745063" height="136.9305"></rect>
                        <rect id="Rectangle-Copy-12" fill="#FFFFFF" opacity="0.3304734" mask="url(#mask-5)" x="11.907" y="522.419625" width="448.745063" height="136.9305"></rect>
                        <g mask="url(#mask-5)">
                            <g transform="translate(264.930750, 57.302438)">
                                <polygon id="Rectangle" fill="#FFB178" points="21.3710554 226.122294 86.0054668 226.122294 86.0054668 368.881531 21.3710554 368.360512"></polygon>
                                <polygon id="Rectangle" fill="#FCA15F" points="21.3710554 226.122294 54.2095063 226.122294 43.7846013 368.881531 21.3710554 368.360512"></polygon>
                                <ellipse id="Oval" fill="#C76925" transform="translate(61.235007, 135.384742) rotate(-96.897611) translate(-61.235007, -135.384742) " cx="61.2350074" cy="135.384742" rx="14.6886988" ry="3.72389409"></ellipse>
                                <ellipse id="Oval" fill="#C76925" transform="translate(44.033914, 136.947799) rotate(96.897611) translate(-44.033914, -136.947799) " cx="44.0339141" cy="136.947799" rx="14.6886988" ry="3.72389409"></ellipse>
                                <g id="statue-of-liberty" stroke-width="1" fill="none">
                                    <path d="M66.2326875,145.86075 L63.5176815,142.844077 C60.9537086,139.995218 59.535,136.298123 59.535,132.465375 L59.535,132.465375 C57.7252365,134.874567 45.3905579,131.66674 45.3280085,131.583898 L45.3954375,138.418875 L42.4186875,144.372375 L66.2326875,145.86075 Z" id="Path" fill="#FCA15F"></path>
                                    <g id="Group" transform="translate(38.572149, 101.598727)" fill="#C76925">
                                        <ellipse id="Oval" cx="14.5427426" cy="15.5472103" rx="14.4238986" ry="15.1356052"></ellipse>
                                    </g>
                                    <path d="M37.391007,108.547559 L38.0592434,110.511801 C38.1468126,110.769184 37.9742804,111.041677 37.7037541,111.072417 L27.5050695,112.232727 C27.3075176,112.255131 27.2449681,111.974822 27.4331377,111.911258 L37.391007,108.547559 Z" id="Path" fill="#FCA15F"></path>
                                    <path d="M68.8403393,108.547559 L68.1721029,110.511801 C68.0845337,110.769184 68.2570659,111.041677 68.5275922,111.072417 L78.7262768,112.232727 C78.9238288,112.255131 78.9863782,111.974822 78.7982087,111.911258 L68.8403393,108.547559 Z" id="Path" fill="#FCA15F"></path>
                                    <path d="M56.6604015,100.832308 C54.6155564,100.546789 53.1154125,100.624421 53.1154125,100.624421 C53.1154125,100.624421 51.6147475,100.546268 49.5688598,100.832308 C44.636316,101.720645 40.6550448,104.417961 38.9672526,107.928588 C38.5142905,109.134226 38.081657,110.390924 38.2474129,112.166557 L39.1356149,113.685849 C39.1356149,113.685849 40.6545235,103.033613 53.1154125,103.033613 C65.5763016,103.033613 67.094689,113.685849 67.094689,113.685849 L67.9828909,112.166557 C68.3477626,110.631114 67.7160133,109.134747 67.2630512,107.929109 C65.5757803,104.417961 61.5939878,101.720645 56.6604015,100.832308 Z" id="Path" fill="#FCA15F"></path>
                                    <path d="M38.2317756,111.696077 C38.2317756,105.581397 44.8953749,100.624421 53.1154125,100.624421 C61.3354502,100.624421 67.9990495,105.581397 67.9990495,111.696077 C67.9990495,111.853946 67.9917521,112.010252 67.9828909,112.166036 C68.5281134,110.931742 68.8288719,109.609396 68.8288719,108.232342 C68.8288719,101.517448 61.7936248,96.0738401 53.1154125,96.0738401 C44.4372003,96.0738401 37.4019531,101.517448 37.4019531,108.232342 C37.4019531,109.609396 37.7021904,110.931742 38.2474129,112.166036 C38.239073,112.010252 38.2317756,111.853946 38.2317756,111.696077 Z" id="Path" fill="#FFC79E"></path>
                                    <g id="Group" transform="translate(49.518299, 80.236943)" fill="#FCA15F">
                                        <path d="M3.32502347,0.736721024 L0.157937312,16.1317937 L3.04980598,17.5645963 C3.39487033,17.7354906 3.79935665,17.7354906 4.14442101,17.5645963 L7.03628967,16.1317937 L3.86972476,0.736721024 C3.80873906,0.440782168 3.38548792,0.440782168 3.32502347,0.736721024 Z" id="Path"></path>
                                        <path d="M11.1718495,17.3421211 L12.6673021,20.0305797 C12.8632904,20.3827887 13.3344961,20.4640676 13.6373396,20.1978269 L25.0604293,10.1452841 C25.2814373,9.95094401 25.0354095,9.60290325 24.7784356,9.74670452 L11.1718495,17.3421211 Z" id="Path"></path>
                                        <path d="M17.5769112,22.4220575 L18.1231762,25.4496995 C18.1945868,25.8461951 18.6147105,26.0754435 18.9868796,25.9212218 L33.0464278,20.0967492 C33.3185178,19.984209 33.1981102,19.5757301 32.9082978,19.628353 L17.5769112,22.4220575 Z" id="Path"></path>
                                    </g>
                                    <g id="Group" transform="translate(23.456036, 89.615287)" fill="#FCA15F">
                                        <path d="M22.0846401,7.96377712 L20.5891875,10.6522357 C20.3931993,11.0044447 19.9219936,11.0857236 19.6191501,10.8194829 L8.19606036,0.766940132 C7.97505237,0.572600004 8.22108013,0.224559237 8.47805404,0.368360512 L22.0846401,7.96377712 Z" id="Path"></path>
                                        <path d="M15.6800997,13.0437135 L15.1338347,16.0713555 C15.0624241,16.4678511 14.6423004,16.6970995 14.2701313,16.5428778 L0.210583082,10.7184052 C-0.0615069399,10.605865 0.0589007136,10.1973861 0.348713074,10.250009 L15.6800997,13.0437135 Z" id="Path"></path>
                                    </g>
                                    <path d="M53.6882611,109.414013 C49.6284555,112.813837 45.9691401,115.622998 42.7103148,117.841498 C42.3423157,118.092108 42.1166165,118.506839 42.1166165,118.951789 L42.1166165,124.083307 C42.1166165,125.251431 42.2677776,126.38569 42.5518562,127.467326 C42.8359349,128.548961 43.2529311,129.579016 43.7835588,130.537691 C44.1374843,131.176982 44.5419706,131.78449 44.9918053,132.355006 C46.7911439,134.637591 49.3129284,136.327777 52.2042758,137.073876 C52.5029494,137.150987 52.8089203,137.189542 53.1154125,137.189542 C53.4213835,137.189542 53.7278757,137.150987 54.0265492,137.073876 C57.2791196,136.234514 60.0646543,134.200456 61.879109,131.471879 C62.0808309,131.168645 62.2705642,130.857076 62.4472663,130.537691 C62.8011918,129.898401 63.1040353,129.227849 63.3516268,128.531247 C63.8452461,127.138042 64.1147299,125.640633 64.1147299,124.083307 L64.1147299,118.951268 C64.1147299,118.506318 63.8890307,118.092629 63.5215528,117.841498 C58.7672748,114.59607 53.779479,109.493729 53.6882611,109.414013 Z" id="Path" fill="#FFB178"></path>
                                    <g id="Group" transform="translate(108.940258, 193.819110)" fill="#EE8C45">
                                        <path d="M12.8471318,2.12888409 L12.8591204,2.33729173 C12.9206273,3.39912868 12.1022723,4.3182064 11.0399745,4.38020767 L2.52856072,4.87465481 C1.4662629,4.93613506 0.546786271,4.11813506 0.484758085,3.05629811 L0.472769445,2.84789046 C0.411262505,1.78605351 1.22961755,0.866975802 2.29191538,0.804974527 L10.8033291,0.31052739 C11.8656269,0.249047135 12.7856248,1.06704714 12.8471318,2.12888409 Z" id="Path"></path>
                                    </g>
                                    <path d="M73.4955807,311.569429 L79.5951926,153.733462 L39.093394,282.913378 C44.1515579,283.494835 65.113957,313.217933 73.4955807,311.569429 Z" id="Path" fill="#FCA15F"></path>
                                    <path d="M9.6744375,129.488625 C11.041749,123.43591 15.1817809,112.050238 26.9207536,105.166145 C26.9207536,105.166145 9.11569958,131.962005 9.6744375,129.488625 Z" id="Path" fill="#C76925"></path>
                                    <path d="M12.2930481,48.6209825 L12.2930481,48.6209825 C11.695701,49.2998704 10.6516467,49.3665608 9.97246418,48.7699939 L4.05893679,43.5717863 C3.37975422,42.9746984 3.31303483,41.9310971 3.90986064,41.2522092 L3.90986064,41.2522092 C4.5072077,40.5733213 5.55126195,40.5066308 6.23044451,41.1031977 L12.1439719,46.3014054 C12.8231545,46.8984933 12.8903951,47.9420946 12.2930481,48.6209825 Z" id="Path" fill="#DE8849"></path>
                                    <path d="M7.2093431,41.2011493 L7.2093431,43.1904003 L7.2093431,47.5153799 L7.2093431,49.5046309 L7.2093431,53.4914691 L7.2093431,55.4807201 L7.2093431,63.3517558 L7.2093431,65.3410068 C7.2093431,67.4907316 8.95238722,69.2335406 11.1035664,69.2335406 C13.2542243,69.2335406 14.9977897,67.4912527 14.9977897,65.3410068 L14.9977897,63.3517558 L14.9977897,55.4807201 L14.9977897,53.4914691 L14.9977897,49.5046309 L14.9977897,47.5153799 L14.9977897,43.1904003 L14.9977897,41.2011493 L7.2093431,41.2011493 L7.2093431,41.2011493 Z" id="Path" fill="#EE8C45"></path>
                                    <polygon id="Path" fill="#FCA15F" points="11.1035664 35.7523314 0.223092968 35.7523314 7.2093431 41.2016703 11.1035664 41.2016703 14.9972684 41.2016703 21.9835186 35.7523314"></polygon>
                                    <path d="M19.1375195,69.2585495 C18.6251354,66.8941648 18.5683197,64.4380807 19.1052023,62.0789061 C19.4539153,60.547631 19.5493032,58.9574806 19.5461757,57.6465965 C19.5414845,55.8303239 18.9738485,54.0651112 17.9204118,52.5854169 C16.0063992,49.8985213 12.8111658,47.2324665 12.271677,49.0294615 C11.4929366,51.6241366 14.9977897,56.8572526 14.9977897,56.8572526 L14.9977897,60.4470743 L14.9977897,63.3527979 L14.9977897,65.3420488 L14.9977897,65.5066909 L14.9894497,65.5066909 C14.9024018,67.5798259 13.1989723,69.2345826 11.1035664,69.2345826 C10.1575062,69.2345826 9.29067539,68.8969622 8.61618403,68.3363457 C8.92007002,72.3664285 11.1035664,74.9350527 11.1035664,74.9350527 L16.0793736,125.643759 L28.2806825,111.43661 L19.1375195,69.2585495 Z" id="Path" fill="#FFB178"></path>
                                    <path d="M15.2276588,116.968791 L16.0788523,125.643759 L28.2801612,111.43661 L26.9207536,105.165624 L26.9207536,105.165624 C26.9207536,105.166145 22.7799813,112.353603 15.2276588,116.968791 Z" id="Path" fill="#EE8C45"></path>
                                    <g id="Group" transform="translate(3.127472, 45.849682)" fill="#FFB178">
                                        <path d="M10.1934722,8.0476612 L10.1934722,8.0476612 C9.59612511,8.7265491 8.55207087,8.79323955 7.8728883,8.19667266 L1.95936091,2.99846499 C1.28017834,2.40137709 1.21345895,1.3577758 1.81028476,0.678887902 L1.81028476,0.678887902 C2.40763182,-8.32667268e-17 3.45168607,-0.0666904463 4.13086863,0.529876436 L10.044396,5.72808411 C10.7235786,6.32517201 10.7908192,7.36877329 10.1934722,8.0476612 Z" id="Path"></path>
                                        <path d="M9.80879317,12.0866014 L9.80879317,12.0866014 C9.21144611,12.7654893 8.16739187,12.8321797 7.48820931,12.2356128 L1.57520316,7.03740514 C0.89602059,6.44031724 0.829301198,5.39671596 1.42612701,4.71782806 L1.42612701,4.71782806 C2.02347407,4.03894015 3.06752831,3.97224971 3.74671088,4.56881659 L9.66023828,9.76702427 C10.3388996,10.3641122 10.4061402,11.4077134 9.80879317,12.0866014 Z" id="Path"></path>
                                        <path d="M9.2620069,15.9827823 L9.2620069,15.9827823 C8.66465984,16.6616702 7.6206056,16.7283606 6.94142304,16.1317937 L1.02841688,10.9335861 C0.34923432,10.3364982 0.282514927,9.29289687 0.879340742,8.61400897 L0.879340742,8.61400897 C1.4766878,7.93512107 2.52074204,7.86843062 3.19992461,8.46499751 L9.11345201,13.6632052 C9.79211333,14.2602931 9.85883272,15.3044154 9.2620069,15.9827823 Z" id="Path"></path>
                                    </g>
                                    <path d="M3.60441093,26.771004 C3.60441093,26.771004 0.714105997,23.6599989 0.714105997,18.7764867 C0.714105997,10.768944 8.58907928,7.91532234 9.99122901,0.816436948 C10.1549,-0.0114624205 11.5549648,-0.290728664 12.2549971,0.360545225 C16.6277236,4.42970449 25.9236114,15.0543262 19.0233668,26.771004 L3.60441093,26.771004 Z" id="Path" fill="#FFB178"></path>
                                    <g id="Group" transform="translate(5.212453, 11.462420)" fill="#EE8C45">
                                        <path d="M1.69925953,15.3085835 C1.69925953,15.3085835 0.0839204858,13.5694217 0.0839204858,10.8398026 C0.0839204858,6.36372743 4.48583665,4.76888793 5.26978951,0.800806374 C5.36100743,0.338141403 6.1439178,0.18183567 6.53537298,0.546028029 C8.97949198,2.82027645 14.1757859,8.7593733 10.318571,15.3085835 L1.69925953,15.3085835 Z" id="Path"></path>
                                    </g>
                                    <polygon id="Path" fill="#FFC59A" points="22.1815917 26.4969479 0.0244985269 26.4969479 0.0244985269 35.7523314 22.1815917 35.7523314"></polygon>
                                    <path d="M26.9207536,105.166145 C27.0594048,106.044062 8.58362191,129.247044 8.93025,130.232813 C11.1252138,136.471495 18.4473908,157.588483 18.4473908,183.83482 L59.6914427,144.500482 C53.0577992,144.519564 46.8040892,141.003987 40.9303125,133.95375 C35.0565358,126.903513 30.3866829,117.307645 26.9207536,105.166145 Z" id="Path" fill="#FFB178"></path>
                                    <path d="M17.1171729,205.11272 L14.4838418,208.724424 C12.6944069,211.178945 12.0621364,214.290471 12.7522651,217.248297 L18.2764223,240.921842 L70.335792,146.207862 C69.0029679,145.59306 67.7869027,145.159572 66.684469,144.851649 L17.1171729,205.11272 Z" id="Path" fill="#FCA15F"></path>
                                    <path d="M59.6919639,144.499961 L18.447912,183.834299 C12.2497847,193.435639 17.1171729,205.11272 17.1171729,205.11272 L66.684469,144.85217 C62.2054085,143.600161 59.6919639,144.499961 59.6919639,144.499961 Z" id="Path" fill="#FFC79E"></path>
                                    <path d="M70.335792,146.208383 L16.3785683,242.041512 C13.9177695,246.412342 12.9915167,251.484984 13.7567047,256.44196 C13.7890219,256.651409 13.8187329,256.858254 13.8505289,257.067183 C22.9347911,269.366881 29.8923728,282.519487 42.2208655,282.913378 C69.6576519,220.576567 79.5951926,153.733983 79.5951926,153.733983 C75.9605495,147.332742 70.335792,146.208383 70.335792,146.208383 Z" id="Path" fill="#FFC79E"></path>
                                    <path d="M79.5951926,153.733462 L71.9318449,312.090448 C81.9851021,311.108327 91.7099748,309.010183 100.983449,305.923145 L79.5951926,153.733462 Z" id="Path" fill="#FFC79E"></path>
                                    <g id="Group" transform="translate(79.229278, 153.700638)" fill="#FCA15F">
                                        <path d="M0.365914168,0.032824204 L6.8846073,18.3534192 C7.48873055,20.0514205 8.54425219,21.5529976 9.938062,22.6966345 L15.9011077,27.588483 L9.90365981,72.4216565 L0.365914168,0.032824204 Z" id="Path"></path>
                                        <path d="M32.9124678,54.278208 C32.9124678,54.278208 19.4721589,98.5351344 10.4249051,79.194905 L8.33992405,60.4382169 L32.9124678,54.278208 Z" id="Path"></path>
                                    </g>
                                    <path d="M112.141746,207.978846 L94.7816731,212.595596 C94.4908182,218.719655 94.6112259,229.422429 98.3568943,235.180733 C105.518804,232.335447 112.141746,207.978846 112.141746,207.978846 Z" id="Path" fill="#EE8C45"></path>
                                    <g id="Group" transform="translate(84.441731, 170.373249)" fill="#FFC79E">
                                        <path d="M12.8627691,1.88713122 L0.507171631,24.8442753 L2.65105336,41.629427 L15.3866386,48.9231736 C17.7770694,50.6232589 21.1177302,49.8432933 22.5068488,47.2606016 L38.3688631,18.6707199 C39.5395799,16.494423 38.9265955,13.7882498 36.9323112,12.3283542 L16.9253546,0.968574528 C15.5727232,-0.0218828027 13.6566256,0.411605098 12.8627691,1.88713122 Z" id="Path"></path>
                                    </g>
                                    <g id="Group" transform="translate(103.727805, 195.903186)" fill="#FFB178">
                                        <path d="M15.4455393,7.43806884 C16.0960534,6.52472233 15.8807791,5.24614143 14.9675574,4.59590958 L9.47415372,0.685661151 C8.56093204,0.0354292996 7.28127494,0.250610193 6.63076087,1.16343568 L6.63076087,1.16343568 C5.98024679,2.07626116 6.19552108,3.35536308 7.10874276,4.00559493 L8.22525009,4.80067009 L12.6021465,7.91636438 C13.5153682,8.56607521 14.7950253,8.35089432 15.4455393,7.43806884 Z" id="Path"></path>
                                        <path d="M14.4061763,9.20067649 L13.978234,8.89588031 L13.978234,8.89588031 L7.2036094,4.07384843 C6.29038772,3.42361658 5.01073062,3.63879748 4.36021654,4.55162296 C3.70970247,5.46496946 3.92497676,6.74355036 4.83819844,7.39378221 L5.26614079,7.69857839 L5.26614079,7.69857839 L12.0407653,12.5211313 C12.9545083,13.1713631 14.2341654,12.9561822 14.8841582,12.0433568 C15.5351935,11.1294892 15.3199192,9.85090834 14.4061763,9.20067649 Z" id="Path"></path>
                                        <path d="M12.5192685,15.3632905 L12.5192685,15.3632905 C11.8687544,16.276637 10.5890973,16.4912969 9.67587563,15.8410651 L2.90125108,11.0185122 C1.9880294,10.3682803 1.77275511,9.0891784 2.42326918,8.17635292 L2.42326918,8.17635292 C3.07378326,7.26352743 4.35344035,7.04834654 5.26666204,7.69857839 L12.0412866,12.5211313 C12.9545083,13.1708421 13.1697826,14.449944 12.5192685,15.3632905 Z" id="Path"></path>
                                        <path d="M9.71913899,18.3878065 C10.3696531,17.47446 10.1543788,16.1958791 9.24115709,15.5456472 L3.69406511,11.5973644 C2.78084343,10.9471326 1.50118633,11.1623134 0.850672253,12.0751389 L0.850672253,12.0751389 C0.200158177,12.9879644 0.415432467,14.2670663 1.32865415,14.9172982 L3.5303941,16.4845237 L6.87574613,18.865581 C7.78896782,19.5158129 9.06862491,19.301153 9.71913899,18.3878065 Z" id="Path"></path>
                                    </g>
                                </g>
                                <rect id="Rectangle" fill="#FFC79E" x="11.4673956" y="367.318474" width="84.9629763" height="13.0254778" rx="6.51164063"></rect>
                                <rect id="Rectangle" fill="#C76925" x="2.08498101" y="378.259875" width="103.727805" height="63.0433125"></rect>
                            </g>
                        </g>
                    </g>
                    <path d="M157.932947,176.372437 L-2.52242671e-13,176.372437 C2.26174741,164.147782 11.6717706,154.9802 22.936671,154.9802 C27.3130478,154.9802 31.4094685,156.363861 34.9155511,158.772887 C40.518035,145.823642 52.1100876,136.9305 65.5014899,136.9305 C78.1394785,136.9305 89.1748883,144.851117 95.0856944,156.626652 C98.2028509,155.566033 101.674979,154.9802 105.398801,154.9802 C117.665885,154.9802 126.898852,159.482521 129.899056,169.051492 C133.302795,166.93964 137.189448,165.676319 140.371087,165.676319 C146.590327,165.676319 155.273408,169.094888 157.93294,176.372436 Z" id="Combined-Shape" fill="#FFF4E2"></path>
                </g>
                <g id="eiffel-tower" transform="translate(97.404260, 384.744938)" fill-rule="nonzero">
                    <path d="M83.4333023,41.6745 C81.7937642,41.6745 80.4565523,40.3401949 80.4565523,38.69775 L80.4565523,2.97675 C80.4565523,1.33430512 81.7937642,0 83.4333023,0 C85.0815615,0 86.4100523,1.33430512 86.4100523,2.97675 L86.4100523,38.69775 C86.4100523,40.3401949 85.0815615,41.6745 83.4333023,41.6745 L83.4333023,41.6745 Z" id="Path" fill="#58ABC0"></path>
                    <path d="M92.8402974,115.200806 L89.3868023,62.51175 L77.4798023,62.51175 L74.0263072,115.200806 C71.1687433,143.479931 66.0495474,181.997449 56.9448785,223.25625 L109.930447,223.25625 C100.817057,181.997449 95.6978613,143.479931 92.8402974,115.200806 L92.8402974,115.200806 Z" id="Path" fill="#72C3D7"></path>
                    <path d="M112.604871,235.16325 L87.8024971,235.16325 C91.8519234,251.00049 103.805435,290.76801 109.104864,306.60525 L133.613633,306.60525 C125.046756,283.029622 118.200812,258.738878 112.604871,235.16325 Z" id="Path" fill="#72C3D7"></path>
                    <path d="M77.4798023,235.16325 L54.2588267,235.16325 C48.6687001,258.738878 41.816942,283.029622 33.2500653,306.60525 L57.6367407,306.60525 C62.9390766,290.76801 75.0786352,251.00049 79.0670151,235.16325 L77.4798023,235.16325 Z" id="Path" fill="#72C3D7"></path>
                    <path d="M166.782302,378.04725 L137.014802,378.04725 C137.014802,378.04725 121.421749,342.32625 83.4333023,342.32625 C45.4535771,342.32625 29.8518023,378.04725 29.8518023,378.04725 L0.0843023042,378.04725 C11.1511846,359.590819 20.6279473,339.468686 28.779126,318.51225 L138.084572,318.51225 C146.247378,339.468686 155.7067,359.590819 166.782302,378.04725 Z" id="Path" fill="#72C3D7"></path>
                    <path d="M54.2530131,235.16325 C55.2065034,231.17487 56.1047607,227.18649 56.9390649,223.25625 L109.924634,223.25625 C110.753123,227.18649 111.645567,231.17487 112.599058,235.16325 L54.2530131,235.16325 Z" id="Path" fill="#9FD9E8"></path>
                    <path d="M33.244251,306.60525 L133.613633,306.60525 C135.043869,310.59363 136.532244,314.58201 138.078758,318.51225 L28.7733116,318.51225 C30.3285474,314.58201 31.8169224,310.59363 33.244251,306.60525 Z" id="Path" fill="#9FD9E8"></path>
                    <path d="M89.3868023,38.69775 L77.4798023,38.69775 C74.2094473,38.69775 71.5263023,41.3779874 71.5263023,44.65125 L71.5263023,56.55825 C71.5263023,59.8315126 74.2094473,62.51175 77.4798023,62.51175 L89.3868023,62.51175 C92.6658785,62.51175 95.3403023,59.8315126 95.3403023,56.55825 L95.3403023,44.65125 C95.3403023,41.3779874 92.6658785,38.69775 89.3868023,38.69775 Z" id="Path" fill="#9FD9E8"></path>
                    <g id="Group" transform="translate(26.790750, 220.279500)" fill="#58ABC0">
                        <path d="M86.4100523,5.9535 L26.8866802,5.9535 C25.2355142,5.9535 23.9099302,4.61919488 23.9099302,2.97675 C23.9099302,1.33430512 25.2355142,0 26.8866802,0 L86.4100523,0 C88.0466836,0 89.3868023,1.33430512 89.3868023,2.97675 C89.3868023,4.61919488 88.0466836,5.9535 86.4100523,5.9535 Z" id="Path"></path>
                        <path d="M110.224052,89.3025 L3.0610523,89.3025 C1.42151422,89.3025 0.0843023042,87.9681949 0.0843023042,86.32575 C0.0843023042,84.6833051 1.42151422,83.349 3.0610523,83.349 L110.224052,83.349 C111.872312,83.349 113.200802,84.6833051 113.200802,86.32575 C113.200802,87.9681949 111.872312,89.3025 110.224052,89.3025 Z" id="Path"></path>
                        <path d="M74.5030523,11.907 C72.8518863,11.907 71.5263023,13.2413051 71.5263023,14.88375 L77.4798023,14.88375 C77.4798023,13.2413051 76.1396836,11.907 74.5030523,11.907 Z" id="Path"></path>
                        <path d="M98.3170523,95.256 C96.6775142,95.256 95.3403023,96.5903051 95.3403023,98.23275 L101.293802,98.23275 C101.293802,96.5903051 99.9653115,95.256 98.3170523,95.256 Z" id="Path"></path>
                        <path d="M86.4100523,95.256 C84.7705142,95.256 83.4333023,96.5903051 83.4333023,98.23275 L89.3868023,98.23275 C89.3868023,96.5903051 88.0583115,95.256 86.4100523,95.256 Z" id="Path"></path>
                        <path d="M74.5030523,95.256 C72.8635142,95.256 71.5263023,96.5903051 71.5263023,98.23275 L77.4798023,98.23275 C77.4798023,96.5903051 76.1513115,95.256 74.5030523,95.256 Z" id="Path"></path>
                        <path d="M62.5960523,95.256 C60.9565142,95.256 59.6193023,96.5903051 59.6193023,98.23275 L65.5728023,98.23275 C65.5728023,96.5903051 64.2443115,95.256 62.5960523,95.256 Z" id="Path"></path>
                        <path d="M50.6890523,95.256 C49.0495142,95.256 47.7123023,96.5903051 47.7123023,98.23275 L53.6658023,98.23275 C53.6658023,96.5903051 52.3373115,95.256 50.6890523,95.256 Z" id="Path"></path>
                        <path d="M38.7820523,95.256 C37.1425142,95.256 35.8053023,96.5903051 35.8053023,98.23275 L41.7588023,98.23275 C41.7588023,96.5903051 40.4303115,95.256 38.7820523,95.256 Z" id="Path"></path>
                        <path d="M26.8750523,95.256 C25.2355142,95.256 23.8983023,96.5903051 23.8983023,98.23275 L29.8518023,98.23275 C29.8518023,96.5903051 28.5233115,95.256 26.8750523,95.256 Z" id="Path"></path>
                        <path d="M14.9680523,95.256 C13.3285142,95.256 11.9913023,96.5903051 11.9913023,98.23275 L17.9448023,98.23275 C17.9448023,96.5903051 16.6163115,95.256 14.9680523,95.256 Z" id="Path"></path>
                        <path d="M62.5960523,11.907 C60.9448863,11.907 59.6193023,13.2413051 59.6193023,14.88375 L65.5728023,14.88375 C65.5728023,13.2413051 64.2326836,11.907 62.5960523,11.907 Z" id="Path"></path>
                        <path d="M50.6890523,11.907 C49.0378863,11.907 47.7123023,13.2413051 47.7123023,14.88375 L53.6658023,14.88375 C53.6658023,13.2413051 52.3256836,11.907 50.6890523,11.907 Z" id="Path"></path>
                        <path d="M38.7820523,11.907 C37.1308863,11.907 35.8053023,13.2413051 35.8053023,14.88375 L41.7588023,14.88375 C41.7588023,13.2413051 40.4186836,11.907 38.7820523,11.907 Z" id="Path"></path>
                    </g>
                    <path d="M95.3403023,53.5815 L71.5379302,53.5815 C69.8867642,53.5815 68.5611802,52.2471949 68.5611802,50.60475 C68.5611802,48.9623051 69.8809506,47.628 71.5379302,47.628 L95.3403023,47.628 C96.9769336,47.628 98.3170523,48.9623051 98.3170523,50.60475 C98.3170523,52.2471949 96.9769336,53.5815 95.3403023,53.5815 Z" id="Path" fill="#FFFFFF"></path>
                </g>
                <g id="Group-9" transform="translate(248.474323, 358.698375)">
                    <g id="Group-17">
                        <g id="Group-15" transform="translate(300.092156, 215.551563) rotate(-344.000000) translate(-300.092156, -215.551563) translate(258.092156, 114.551563)">
                            <g id="Path-20" transform="translate(16.587689, 46.862531)">
                                <mask id="mask-7" fill="white">
                                    <use xlink:href="#path-6"></use>
                                </mask>
                                <use id="Mask" fill="#FFAC72" xlink:href="#path-6"></use>
                                <path d="M21.86888,59.3686864 L25.3973258,114.871903 C31.139578,131.490462 33.9545636,139.546581 33.8422827,139.04026 C26.1052824,104.150886 27.5785594,76.8902659 38.2621135,57.2583984 L21.86888,59.3686864 Z" id="Path-9" fill="url(#linearGradient-8)" mask="url(#mask-7)"></path>
                            </g>
                            <path d="M28.2709288,81.7911407 C41.7530327,87.9584065 49.6666975,91.0420394 52.0119234,91.0420394 C55.5297623,91.0420394 61.6718149,83.6201147 61.6718149,83.3165837 C61.6718149,83.0130526 61.6718149,63.2880701 61.6718149,62.1329808 C61.6718149,61.3629213 60.901694,58.3455398 59.3614522,53.0808363 C51.9169502,49.0695966 48.1946992,47.0639767 48.1946992,47.0639767 C48.1946992,47.0639767 40.2845222,50.1035891 38.8487645,51.0763392 C37.8915927,51.7248393 34.3656474,61.9631064 28.2709288,81.7911407 Z" id="Path-7" fill="url(#linearGradient-9)"></path>
                            <path d="M19.4756963,40.7877129 C17.6591378,36.6657368 15.7128252,34.8623723 13.6367583,35.3776193 C10.5226581,36.1504898 8.57634544,43.2691986 13.6367583,49.9503785 C17.0103669,54.4044985 18.9566796,51.3502766 19.4756963,40.7877129 Z" id="Path-12" fill="#FFAC72"></path>
                            <path d="M14.7960913,52.7114083 C13.7919535,50.0238909 12.1969317,49.3520115 10.011026,50.6957702 C6.73216751,52.7114083 5.80260606,57.5503033 9.10308235,63.3642501 C11.3033999,67.2402147 13.2010695,63.6892674 14.7960913,52.7114083 Z" id="Path-13" fill="#FFAC72"></path>
                            <path d="M25.7624841,28.2640347 C23.645237,24.3455908 21.4091492,22.9088281 19.0542207,23.9537464 C15.521828,25.521124 15.521828,32.0995288 19.0542207,37.8227474 C22.5866134,43.545966 25.9480364,34.1417006 25.9480364,34.1417006 C25.9480364,34.1417006 25.8861856,32.1824786 25.7624841,28.2640347 Z" id="Path-11" fill="#FFAC72"></path>
                            <g id="Group-18" transform="translate(38.483632, 51.128830) rotate(21.000000) translate(-38.483632, -51.128830) translate(15.983632, 5.128830)">
                                <g id="Group-2" transform="translate(22.500000, 46.000000) rotate(-360.000000) translate(-22.500000, -46.000000) ">
                                    <rect id="Rectangle" fill="#13366A" x="0" y="0" width="44.746395" height="91.1704095"></rect>
                                    <g id="Rectangle" transform="translate(2.893086, 4.616223)">
                                        <mask id="mask-11" fill="white">
                                            <use xlink:href="#path-10"></use>
                                        </mask>
                                        <use id="Mask" fill="#DFECFF" xlink:href="#path-10"></use>
                                        <polygon fill="#FFFFFF" mask="url(#mask-11)" points="-1.488375 62.51175 40.1720617 62.51175 40.3473168 84.7840063 -1.31311992 84.7840063"></polygon>
                                        <path d="M15.9635499,76.6516606 L23.225907,76.6513125 C23.7985085,76.6512851 24.262716,77.115448 24.2627435,77.6880496 C24.2627438,77.695083 24.2626726,77.7021162 24.2625298,77.7091482 C24.2505957,78.2968531 23.7707696,78.7670572 23.1829435,78.7670853 L15.9205864,78.7674334 C15.3479849,78.7674608 14.8837774,78.3032979 14.88375,77.7306963 C14.8837497,77.7236629 14.8838209,77.7166297 14.8839637,77.7095977 C14.8958978,77.1218928 15.3757239,76.6516887 15.9635499,76.6516606 Z" id="Rectangle-Copy-3" fill="#E3E8FF" mask="url(#mask-11)"></path>
                                        <path d="M2.25352219,2.97675 L9.69428822,2.97675 C10.0943269,2.97675 10.4186223,3.30104544 10.4186223,3.70108413 C10.4186223,3.70770285 10.4185316,3.71432126 10.4183502,3.7209375 C10.4069914,4.13519974 10.0678958,4.465125 9.65347781,4.465125 L2.21271178,4.465125 C1.81267309,4.465125 1.48837765,4.14082956 1.48837765,3.74079087 C1.48837765,3.73417215 1.48846837,3.72755374 1.48864979,3.7209375 C1.50000862,3.30667526 1.83910425,2.97675 2.25352219,2.97675 Z" fill="#C0CCE4" mask="url(#mask-11)" transform="translate(5.953500, 3.720938) scale(1, -1) translate(-5.953500, -3.720938) "></path>
                                        <path d="M29.0442722,2.97675 L36.4850382,2.97675 C36.8850769,2.97675 37.2093723,3.30104544 37.2093723,3.70108413 C37.2093723,3.70770285 37.2092816,3.71432126 37.2091002,3.7209375 C37.1977414,4.13519974 36.8586458,4.465125 36.4442278,4.465125 L29.0034618,4.465125 C28.6034231,4.465125 28.2791277,4.14082956 28.2791277,3.74079087 C28.2791277,3.73417215 28.2792184,3.72755374 28.2793998,3.7209375 C28.2907586,3.30667526 28.6298542,2.97675 29.0442722,2.97675 Z" fill="#C0CCE4" mask="url(#mask-11)" transform="translate(32.744250, 3.720938) scale(1, -1) translate(-32.744250, -3.720938) "></path>
                                    </g>
                                </g>
                                <path d="M7.17340337,12.9643259 L37.6850909,12.9643259 C38.9181011,12.9643259 39.9176534,13.9638782 39.9176534,15.1968884 L39.9176534,50.9178884 C39.9176534,52.1508986 38.9181011,53.1504509 37.6850909,53.1504509 L7.17340337,53.1504509 C5.94039314,53.1504509 4.94084087,52.1508986 4.94084087,50.9178884 L4.94084087,15.1968884 C4.94084087,13.9638782 5.94039314,12.9643259 7.17340337,12.9643259 Z" id="Rectangle" fill="#FFFFFF"></path>
                                <g id="Rectangle" transform="translate(7.173403, 15.196888)">
                                    <mask id="mask-13" fill="white">
                                        <use xlink:href="#path-12"></use>
                                    </mask>
                                    <use id="Mask" fill="#C9F2FC" xlink:href="#path-12"></use>
                                    <rect fill="#2C7EF7" mask="url(#mask-13)" x="0" y="31.255875" width="30.5116875" height="4.465125"></rect>
                                </g>
                                <g id="eiffel-tower" transform="translate(16.847841, 19.662013)">
                                    <path d="M5.93303483,2.95331102 C5.81644546,2.95331102 5.72135483,2.85875397 5.72135483,2.74236024 L5.72135483,0.210950787 C5.72135483,0.0945570556 5.81644546,0 5.93303483,0 C6.05024437,0 6.14471483,0.0945570556 6.14471483,0.210950787 L6.14471483,2.74236024 C6.14471483,2.85875397 6.05024437,2.95331102 5.93303483,2.95331102 L5.93303483,2.95331102 Z" id="Path" fill="#2068D1"></path>
                                    <path d="M6.60197671,8.16383666 L6.35639483,4.42996654 L5.50967483,4.42996654 L5.26409296,8.16383666 C5.06088841,10.1678691 4.69685671,12.897457 4.04941358,15.8213091 L7.81727625,15.8213091 C7.16921296,12.897457 6.80518125,10.1678691 6.60197671,8.16383666 L6.60197671,8.16383666 Z" id="Path" fill="#2C7EF7"></path>
                                    <path d="M8.0074575,16.6651122 L6.24373312,16.6651122 C6.53169233,17.7874363 7.38171983,20.605607 7.75856812,21.7279311 L9.50141392,21.7279311 C8.89221375,20.0572173 8.40539108,18.335826 8.0074575,16.6651122 Z" id="Path" fill="#2C7EF7"></path>
                                    <path d="M5.50967483,16.6651122 L3.85840546,16.6651122 C3.46088534,18.335826 2.97364921,20.0572173 2.36444909,21.7279311 L4.09861267,21.7279311 C4.47566767,20.605607 5.33892517,17.7874363 5.62254329,16.6651122 L5.50967483,16.6651122 Z" id="Path" fill="#2C7EF7"></path>
                                    <path d="M11.8600748,26.79075 L9.74327483,26.79075 C9.74327483,26.79075 8.63443546,24.2593406 5.93303483,24.2593406 C3.23225437,24.2593406 2.12279483,26.79075 2.12279483,26.79075 L0.00599483052,26.79075 C0.792973125,25.4828139 1.46687625,24.056836 2.04651562,22.5717343 L9.81934733,22.5717343 C10.3998136,24.056836 11.0724764,25.4828139 11.8600748,26.79075 Z" id="Path" fill="#2C7EF7"></path>
                                    <path d="M3.85799204,16.6651122 C3.92579579,16.3824711 3.98967188,16.09983 4.04900017,15.8213091 L7.81686284,15.8213091 C7.87577767,16.09983 7.93924034,16.3824711 8.00704409,16.6651122 L3.85799204,16.6651122 Z" id="Path" fill="#5A9DFF"></path>
                                    <path d="M2.36403562,21.7279311 L9.50141392,21.7279311 C9.60311954,22.0105722 9.70895954,22.2932133 9.81893392,22.5717343 L2.04610216,22.5717343 C2.15669671,22.2932133 2.26253671,22.0105722 2.36403562,21.7279311 Z" id="Path" fill="#5A9DFF"></path>
                                    <path d="M6.35639483,2.74236024 L5.50967483,2.74236024 C5.27711625,2.74236024 5.08631483,2.93229832 5.08631483,3.16426181 L5.08631483,4.00806496 C5.08631483,4.24002845 5.27711625,4.42996654 5.50967483,4.42996654 L6.35639483,4.42996654 C6.58957358,4.42996654 6.77975483,4.24002845 6.77975483,4.00806496 L6.77975483,3.16426181 C6.77975483,2.93229832 6.58957358,2.74236024 6.35639483,2.74236024 Z" id="Path" fill="#2C7EF7"></path>
                                    <g id="Group" transform="translate(1.905120, 15.610358)">
                                        <path d="M6.14471483,0.421901575 L1.91194171,0.421901575 C1.79452546,0.421901575 1.70026171,0.327344519 1.70026171,0.210950787 C1.70026171,0.0945570556 1.79452546,0 1.91194171,0 L6.14471483,0 C6.2610975,0 6.35639483,0.0945570556 6.35639483,0.210950787 C6.35639483,0.327344519 6.2610975,0.421901575 6.14471483,0.421901575 Z" id="Path" fill="#FFFFFF"></path>
                                        <path d="M7.83815483,6.32852362 L0.217674831,6.32852362 C0.101085456,6.32852362 0.00599483052,6.23396657 0.00599483052,6.11757283 C0.00599483052,6.0011791 0.101085456,5.90662205 0.217674831,5.90662205 L7.83815483,5.90662205 C7.95536438,5.90662205 8.04983483,6.0011791 8.04983483,6.11757283 C8.04983483,6.23396657 7.95536438,6.32852362 7.83815483,6.32852362 Z" id="Path" fill="#FFFFFF"></path>
                                        <path d="M5.29799483,0.84380315 C5.18057858,0.84380315 5.08631483,0.938360205 5.08631483,1.05475394 L5.50967483,1.05475394 C5.50967483,0.938360205 5.4143775,0.84380315 5.29799483,0.84380315 Z" id="Path" fill="#2068D1"></path>
                                        <path d="M6.99143483,6.7504252 C6.87484546,6.7504252 6.77975483,6.84498225 6.77975483,6.96137598 L7.20311483,6.96137598 C7.20311483,6.84498225 7.10864438,6.7504252 6.99143483,6.7504252 Z" id="Path" fill="#2068D1" fill-rule="nonzero"></path>
                                        <path d="M6.14471483,6.7504252 C6.02812546,6.7504252 5.93303483,6.84498225 5.93303483,6.96137598 L6.35639483,6.96137598 C6.35639483,6.84498225 6.26192438,6.7504252 6.14471483,6.7504252 Z" id="Path" fill="#2068D1" fill-rule="nonzero"></path>
                                        <path d="M5.29799483,6.7504252 C5.18140546,6.7504252 5.08631483,6.84498225 5.08631483,6.96137598 L5.50967483,6.96137598 C5.50967483,6.84498225 5.41520438,6.7504252 5.29799483,6.7504252 Z" id="Path" fill="#2068D1" fill-rule="nonzero"></path>
                                        <path d="M4.45127483,6.7504252 C4.33468546,6.7504252 4.23959483,6.84498225 4.23959483,6.96137598 L4.66295483,6.96137598 C4.66295483,6.84498225 4.56848438,6.7504252 4.45127483,6.7504252 Z" id="Path" fill="#2068D1" fill-rule="nonzero"></path>
                                        <path d="M3.60455483,6.7504252 C3.48796546,6.7504252 3.39287483,6.84498225 3.39287483,6.96137598 L3.81623483,6.96137598 C3.81623483,6.84498225 3.72176438,6.7504252 3.60455483,6.7504252 Z" id="Path" fill="#2068D1" fill-rule="nonzero"></path>
                                        <path d="M2.75783483,6.7504252 C2.64124546,6.7504252 2.54615483,6.84498225 2.54615483,6.96137598 L2.96951483,6.96137598 C2.96951483,6.84498225 2.87504438,6.7504252 2.75783483,6.7504252 Z" id="Path" fill="#2068D1" fill-rule="nonzero"></path>
                                        <path d="M1.91111483,6.7504252 C1.79452546,6.7504252 1.69943483,6.84498225 1.69943483,6.96137598 L2.12279483,6.96137598 C2.12279483,6.84498225 2.02832437,6.7504252 1.91111483,6.7504252 Z" id="Path" fill="#2068D1" fill-rule="nonzero"></path>
                                        <path d="M1.06439483,6.7504252 C0.947805456,6.7504252 0.852714831,6.84498225 0.852714831,6.96137598 L1.27607483,6.96137598 C1.27607483,6.84498225 1.18160438,6.7504252 1.06439483,6.7504252 Z" id="Path" fill="#2068D1" fill-rule="nonzero"></path>
                                        <path d="M4.45127483,0.84380315 C4.33385858,0.84380315 4.23959483,0.938360205 4.23959483,1.05475394 L4.66295483,1.05475394 C4.66295483,0.938360205 4.5676575,0.84380315 4.45127483,0.84380315 Z" id="Path" fill="#2068D1"></path>
                                        <path d="M3.60455483,0.84380315 C3.48713858,0.84380315 3.39287483,0.938360205 3.39287483,1.05475394 L3.81623483,1.05475394 C3.81623483,0.938360205 3.7209375,0.84380315 3.60455483,0.84380315 Z" id="Path" fill="#2068D1"></path>
                                        <path d="M2.75783483,0.84380315 C2.64041858,0.84380315 2.54615483,0.938360205 2.54615483,1.05475394 L2.96951483,1.05475394 C2.96951483,0.938360205 2.8742175,0.84380315 2.75783483,0.84380315 Z" id="Path" fill="#2068D1"></path>
                                    </g>
                                    <path d="M6.77975483,3.79711417 L5.08714171,3.79711417 C4.96972546,3.79711417 4.87546171,3.70255712 4.87546171,3.58616339 C4.87546171,3.46976965 4.96931204,3.3752126 5.08714171,3.3752126 L6.77975483,3.3752126 C6.8961375,3.3752126 6.99143483,3.46976965 6.99143483,3.58616339 C6.99143483,3.70255712 6.8961375,3.79711417 6.77975483,3.79711417 Z" id="Path" fill="#FFFFFF"></path>
                                </g>
                                <g id="Group-5" transform="translate(18.336216, 71.010951)">
                                    <circle id="Oval" fill="#466DAC" cx="3.7209375" cy="3.7209375" r="3.7209375"></circle>
                                    <polygon id="Triangle" fill="#FFFFFF" transform="translate(3.872743, 3.754073) rotate(-270.000000) translate(-3.872743, -3.754073) " points="3.87274266 2.74174342 5.39541953 4.76640287 2.35006579 4.76640287"></polygon>
                                </g>
                                <g id="Group-19" transform="translate(7.917591, 73.243513)" fill="#B8C2EE">
                                    <path d="M1.97680581,1.55866595 L-1.234568e-13,3.04535375 L-1.23012711e-13,-1.23984152e-14 L1.97680581,1.4866878 L1.97680581,0.00116622801 L2.72099331,0.00116622801 L2.72099331,2.97791623 L1.97680581,2.97791623 L1.97680581,1.55866595 Z" id="Combined-Shape" transform="translate(1.360497, 1.522677) scale(-1, 1) translate(-1.360497, -1.522677) "></path>
                                    <path d="M28.0233683,1.55866595 L26.0465625,3.04535375 L26.0465625,-1.23984152e-14 L28.0233683,1.4866878 L28.0233683,0.00116622801 L28.7675558,0.00116622801 L28.7675558,2.97791623 L28.0233683,2.97791623 L28.0233683,1.55866595 Z" id="Combined-Shape-Copy-5"></path>
                                </g>
                            </g>
                            <g id="Path-26" transform="translate(53.161772, 37.747835)">
                                <mask id="mask-15" fill="white">
                                    <use xlink:href="#path-14"></use>
                                </mask>
                                <use id="Mask" fill="#FFAC72" xlink:href="#path-14"></use>
                            </g>
                        </g>
                        <g id="orang">
                            <g id="Group-4">
                                <g id="Path-5" transform="translate(79.219865, 100.069927)">
                                    <mask id="mask-17" fill="white">
                                        <use xlink:href="#path-16"></use>
                                    </mask>
                                    <use id="Mask" fill="#FFAC72" xlink:href="#path-16"></use>
                                    <path d="M142.139813,30.5116875 L77.3955,36.4651875 C72.43425,68.2171875 79.876125,86.5738125 99.721125,91.5350625 C119.566125,96.4963125 134.201813,86.821875 143.628188,62.51175 L142.139813,30.5116875 Z" id="Path-8" fill="url(#linearGradient-18)" mask="url(#mask-17)"></path>
                                </g>
                                <g id="Group-3" transform="translate(98.976938, 0.000000)">
                                    <g id="Path-19" transform="translate(21.839241, 35.634120)">
                                        <mask id="mask-20" fill="white">
                                            <use xlink:href="#path-19"></use>
                                        </mask>
                                        <use id="Mask" fill="#FFAC72" xlink:href="#path-19"></use>
                                    </g>
                                    <g id="Path-17" transform="translate(0.000000, 0.005595)">
                                        <mask id="mask-22" fill="white">
                                            <use xlink:href="#path-21"></use>
                                        </mask>
                                        <use id="Mask" fill="#7E1D44" xlink:href="#path-21"></use>
                                        <path d="M100.465312,93.0178423 C100.465312,34.4750923 85.5815625,5.20371728 55.8140625,5.20371728" id="Path-48" stroke="#FFFFFF" stroke-width="6.6976875" stroke-linecap="round" stroke-linejoin="round" mask="url(#mask-22)"></path>
                                    </g>
                                    <g id="Path-4" transform="translate(80.273106, 76.881355)">
                                        <mask id="mask-24" fill="white">
                                            <use xlink:href="#path-23"></use>
                                        </mask>
                                        <use id="Mask" fill="#FFAC72" xlink:href="#path-23"></use>
                                        <path d="M20.2955843,-1.54336571 C21.3972888,-0.514455236 21.948141,3.55271368e-15 21.948141,3.55271368e-15 C21.948141,3.55271368e-15 22.2612369,2.02320445 22.8874285,6.06961336 C19.551195,2.26312383 16.2905461,0.677086521 13.1054819,1.31150144 C8.32788554,2.26312383 3.94672086,6.05504532 2.9960814,12.7309701 C2.04544194,19.4068948 6.32331951,34.4179005 2.9960814,34.4179005 C0.777922658,34.4179005 -1.28179617,23.3824342 -3.18307509,1.31150144 C0.619482748,-5.03264778 2.9960814,-8.2047224 3.94672086,-8.2047224 C5.37268005,-8.2047224 12.6894697,-9.15634478 13.3089524,-9.15634478 C13.7219409,-9.15634478 16.0508182,-6.61868509 20.2955843,-1.54336571 Z" id="Path-10" fill="#FFF1F2" opacity="0.602864583" mask="url(#mask-24)"></path>
                                        <path d="M26.2109638,11.7793477 C28.8128838,15.9030447 28.5212654,17.8062894 25.3361087,17.489082 C20.5583736,17.0132708 22.0088706,9.8761029 15.8297141,9.8761029 C9.65055761,9.8761029 4.89736032,16.0616484 11.5518365,27.481117 C18.2063127,38.9005856 22.95951,29.860173 25.3361087,28.4327394 C26.9205078,27.481117 28.1880271,23.8332312 29.1386665,17.489082 L26.2109638,11.7793477 Z" fill="url(#linearGradient-25)" mask="url(#mask-24)"></path>
                                    </g>
                                </g>
                                <path d="M256.675139,290.379188 L314.742139,281.182279 L323.88084,338.881766 C326.420497,354.916526 315.480554,369.974065 299.445795,372.513721 C283.411036,375.053377 268.353497,364.113435 265.81384,348.078676 L256.675139,290.379188 Z" id="Rectangle" fill="#FFAC72"></path>
                                <polygon id="Path-14" fill="url(#linearGradient-26)" points="263.442375 311.070375 322.233188 311.070375 263.442375 377.303063"></polygon>
                                <g id="Path-14" transform="translate(4.465125, 283.535438)">
                                    <mask id="mask-28" fill="white">
                                        <use xlink:href="#path-27"></use>
                                    </mask>
                                    <use id="Mask" fill="#FFAC72" xlink:href="#path-27"></use>
                                    <polygon fill="url(#linearGradient-26)" mask="url(#mask-28)" points="-1.488375 27.5349375 57.3024375 27.5349375 -1.488375 93.767625"></polygon>
                                </g>
                                <g id="Path-18" transform="translate(0.357765, 171.182740)">
                                    <mask id="mask-31" fill="white">
                                        <use xlink:href="#path-30"></use>
                                    </mask>
                                    <use id="Combined-Shape" fill="url(#linearGradient-29)" xlink:href="#path-30"></use>
                                    <path d="M106.061041,-6.36850467 C110.168566,18.2392939 124.558847,32.130793 149.231886,35.3059928 C186.241444,40.0687926 208.676837,12.0873442 210.991479,-1.01035499" id="Path-2" stroke-opacity="0.203015734" stroke="#73AAE2" stroke-width="2.97674982" mask="url(#mask-31)"></path>
                                </g>
                                <g id="Path-3" transform="translate(59.886380, 171.214248)">
                                    <mask id="mask-34" fill="white">
                                        <use xlink:href="#path-33"></use>
                                    </mask>
                                    <use id="Mask" fill="url(#linearGradient-32)" xlink:href="#path-33"></use>
                                </g>
                                <g id="Path-6" transform="translate(177.956690, 167.288907)">
                                    <mask id="mask-37" fill="white">
                                        <use xlink:href="#path-36"></use>
                                    </mask>
                                    <use id="Mask" fill="url(#linearGradient-35)" transform="translate(42.529258, 66.795047) rotate(1.000000) translate(-42.529258, -66.795047) " xlink:href="#path-36"></use>
                                </g>
                                <g id="Path-22" transform="translate(44.948921, 206.339893)">
                                    <mask id="mask-40" fill="white">
                                        <use xlink:href="#path-39"></use>
                                    </mask>
                                    <use id="Mask" fill="url(#linearGradient-38)" xlink:href="#path-39"></use>
                                    <path d="M39.9287646,29.7675 L54.0280162,29.7675 L51.0512662,216.558563 L14.88375,216.758518 L14.6264217,55.1101538 C14.6041763,41.1360557 25.9143876,29.7897775 39.8884858,29.7675321 C39.901912,29.7675107 39.9153383,29.7675 39.9287646,29.7675 Z" id="Rectangle" fill="url(#linearGradient-41)" mask="url(#mask-40)"></path>
                                    <mask id="mask-44" fill="white">
                                        <use xlink:href="#path-43"></use>
                                    </mask>
                                    <use id="Mask" stroke="#FFFFFF" stroke-width="0.7441875" fill="url(#linearGradient-42)" xlink:href="#path-43"></use>
                                    <path d="M26.4930787,123.335169 L197.656204,123.335169" id="Path" stroke="#FFFFFF" stroke-width="0.7441875" mask="url(#mask-44)"></path>
                                    <circle id="Oval" fill="#FFFFFF" mask="url(#mask-44)" cx="109.842079" cy="123.335169" r="7.441875"></circle>
                                </g>
                            </g>
                        </g>
                    </g>
                    <mask id="mask-46" fill="white">
                        <use xlink:href="#path-45"></use>
                    </mask>
                    <use id="Mask" fill="#DFECFF" xlink:href="#path-45"></use>
                    <ellipse id="Oval" fill="#FFFFFF" mask="url(#mask-46)" cx="201.674813" cy="95.256" rx="24.5581875" ry="27.5349375"></ellipse>
                    <g id="Oval-2" mask="url(#mask-46)">
                        <g transform="translate(185.302688, 76.651313)" id="Oval-+-Oval-Mask">
                            <g>
                                <ellipse id="Oval" stroke="#2C7EF7" stroke-width="1.89" cx="14.1395625" cy="18.6046875" rx="14.1395625" ry="18.6046875"></ellipse>
                            </g>
                        </g>
                    </g>
                    <g id="Oval-2" mask="url(#mask-46)">
                        <g transform="translate(183.814312, 74.418750)"></g>
                    </g>
                </g>
                <g id="Group-11-Copy-5" transform="translate(196.381198, 487.442813)">
                    <g id="Rectangle">
                        <use fill="black" fill-opacity="1" filter="url(#filter-48)" xlink:href="#path-47"></use>
                        <use fill="#FFFFFF" fill-rule="evenodd" xlink:href="#path-47"></use>
                    </g>
                    <path d="M43.0374263,47.76408 C35.9059838,38.3348768 32.3402625,31.6392661 32.3402625,27.6772479 C32.3402625,21.7342206 37.1295458,16.916445 43.0374263,16.916445 C48.9453067,16.916445 53.73459,21.7342206 53.73459,27.6772479 C53.73459,31.6392661 50.1688688,38.3348768 43.0374263,47.76408 Z M43.3520487,32.3402625 C45.9584665,32.3402625 48.0713857,30.1823005 48.0713857,27.5203195 C48.0713857,24.8583385 45.9584665,22.7003766 43.3520487,22.7003766 C40.7456309,22.7003766 38.6327118,24.8583385 38.6327118,27.5203195 C38.6327118,30.1823005 40.7456309,32.3402625 43.3520487,32.3402625 Z" id="Combined-Shape" fill="#FF5875"></path>
                    <path d="M29.3219902,20.4789135 C27.4856837,22.220076 26.3367352,24.70642 26.3367352,27.4667179 C26.3367352,30.2036278 27.4662961,32.6712065 29.2754613,34.4101035" id="Path" stroke-opacity="0.173650568" stroke="#861C4F" stroke-width="2.50047" stroke-linecap="round" stroke-linejoin="round"></path>
                    <path d="M22.2326968,15.5034885 C18.6871167,18.1884306 16.3858852,22.516373 16.3858852,27.3981927 C16.3858852,32.3365557 18.7407331,36.7081367 22.3563952,39.3855285" id="Path" stroke-opacity="0.173650568" stroke="#861C4F" stroke-width="2.50047" stroke-linecap="round" stroke-linejoin="round"></path>
                    <path d="M59.6720827,20.4789135 C57.8357762,22.220076 56.6868277,24.70642 56.6868277,27.4667179 C56.6868277,30.2036278 57.8163886,32.6712065 59.6255538,34.4101035" id="Path" stroke-opacity="0.173650568" stroke="#861C4F" stroke-width="2.50047" stroke-linecap="round" stroke-linejoin="round" transform="translate(58.179455, 27.444508) scale(-1, 1) translate(-58.179455, -27.444508) "></path>
                    <path d="M69.4992343,15.5034885 C65.9536542,18.1884306 63.6524227,22.516373 63.6524227,27.3981927 C63.6524227,32.3365557 66.0072706,36.7081367 69.6229327,39.3855285" id="Path" stroke-opacity="0.173650568" stroke="#861C4F" stroke-width="2.50047" stroke-linecap="round" stroke-linejoin="round" transform="translate(66.637678, 27.444508) scale(-1, 1) translate(-66.637678, -27.444508) "></path>
                    <path d="M20.3992425,59.9538713 L68.660865,59.9538713" id="Path-53" stroke-opacity="0.173650568" stroke="#861C4F" stroke-width="2.50047" stroke-linecap="round" stroke-linejoin="round"></path>
                    <path d="M27.86238,69.9047213 L61.1977275,69.9047213" id="Path-53-Copy" stroke-opacity="0.173650568" stroke="#861C4F" stroke-width="2.50047" stroke-linecap="round" stroke-linejoin="round"></path>
                </g>
                <g id="Group-11-Copy-6" transform="translate(512.660885, 270.140062)">
                    <g id="Rectangle">
                        <use fill="black" fill-opacity="1" filter="url(#filter-50)" xlink:href="#path-49"></use>
                        <use fill="#FFFFFF" fill-rule="evenodd" xlink:href="#path-49"></use>
                    </g>
                    <path d="M43.0374263,47.76408 C35.9059838,38.3348768 32.3402625,31.6392661 32.3402625,27.6772479 C32.3402625,21.7342206 37.1295458,16.916445 43.0374263,16.916445 C48.9453067,16.916445 53.73459,21.7342206 53.73459,27.6772479 C53.73459,31.6392661 50.1688688,38.3348768 43.0374263,47.76408 Z M43.3520487,32.3402625 C45.9584665,32.3402625 48.0713857,30.1823005 48.0713857,27.5203195 C48.0713857,24.8583385 45.9584665,22.7003766 43.3520487,22.7003766 C40.7456309,22.7003766 38.6327118,24.8583385 38.6327118,27.5203195 C38.6327118,30.1823005 40.7456309,32.3402625 43.3520487,32.3402625 Z" id="Combined-Shape" fill="#FF5875"></path>
                    <path d="M29.3219902,20.4789135 C27.4856837,22.220076 26.3367352,24.70642 26.3367352,27.4667179 C26.3367352,30.2036278 27.4662961,32.6712065 29.2754613,34.4101035" id="Path" stroke-opacity="0.173650568" stroke="#861C4F" stroke-width="2.50047" stroke-linecap="round" stroke-linejoin="round"></path>
                    <path d="M22.2326968,15.5034885 C18.6871167,18.1884306 16.3858852,22.516373 16.3858852,27.3981927 C16.3858852,32.3365557 18.7407331,36.7081367 22.3563952,39.3855285" id="Path" stroke-opacity="0.173650568" stroke="#861C4F" stroke-width="2.50047" stroke-linecap="round" stroke-linejoin="round"></path>
                    <path d="M59.6720827,20.4789135 C57.8357762,22.220076 56.6868277,24.70642 56.6868277,27.4667179 C56.6868277,30.2036278 57.8163886,32.6712065 59.6255538,34.4101035" id="Path" stroke-opacity="0.173650568" stroke="#861C4F" stroke-width="2.50047" stroke-linecap="round" stroke-linejoin="round" transform="translate(58.179455, 27.444508) scale(-1, 1) translate(-58.179455, -27.444508) "></path>
                    <path d="M69.4992343,15.5034885 C65.9536542,18.1884306 63.6524227,22.516373 63.6524227,27.3981927 C63.6524227,32.3365557 66.0072706,36.7081367 69.6229327,39.3855285" id="Path" stroke-opacity="0.173650568" stroke="#861C4F" stroke-width="2.50047" stroke-linecap="round" stroke-linejoin="round" transform="translate(66.637678, 27.444508) scale(-1, 1) translate(-66.637678, -27.444508) "></path>
                    <path d="M20.3992425,59.9538713 L68.660865,59.9538713" id="Path-53" stroke-opacity="0.173650568" stroke="#861C4F" stroke-width="2.50047" stroke-linecap="round" stroke-linejoin="round"></path>
                    <path d="M27.86238,69.9047213 L61.1977275,69.9047213" id="Path-53-Copy" stroke-opacity="0.173650568" stroke="#861C4F" stroke-width="2.50047" stroke-linecap="round" stroke-linejoin="round"></path>
                </g>
            </g>
        </g>
    </g>
</svg>